<svg width="154" height="115" viewBox="0 0 154 115" fill="none" xmlns="http://www.w3.org/2000/svg">
<g clip-path="url(#clip0_24_1505)">
<path d="M22.88 94.9714H18.0625V99.2383H22.5187V100.537H18.0625V106H16.6173V93.6638H22.88V94.9714ZM25.7533 94.9542C25.5009 94.9542 25.2859 94.8682 25.1081 94.6961C24.9303 94.5241 24.8414 94.3062 24.8414 94.0423C24.8414 93.7785 24.9303 93.5606 25.1081 93.3885C25.2859 93.2108 25.5009 93.1219 25.7533 93.1219C26.0114 93.1219 26.2293 93.2108 26.4071 93.3885C26.5906 93.5606 26.6824 93.7785 26.6824 94.0423C26.6824 94.2947 26.5906 94.5098 26.4071 94.6875C26.2293 94.8653 26.0114 94.9542 25.7533 94.9542ZM26.4415 106H25.0307V97.1909H26.4415V106ZM36.6098 106H35.199V100.976C35.199 99.1064 34.5165 98.1716 33.1515 98.1716C32.4461 98.1716 31.8612 98.4383 31.3966 98.9717C30.9378 99.4993 30.7084 100.167 30.7084 100.976V106H29.2976V97.1909H30.7084V98.6534H30.7428C31.4081 97.5407 32.3716 96.9844 33.6333 96.9844C34.5968 96.9844 35.3337 97.297 35.8442 97.9221C36.3546 98.5415 36.6098 99.4391 36.6098 100.615V106ZM45.5823 106H44.1715V104.624H44.1371C43.5234 105.679 42.6202 106.206 41.4273 106.206C40.5498 106.206 39.8616 105.974 39.3626 105.51C38.8694 105.045 38.6228 104.429 38.6228 103.66C38.6228 102.014 39.592 101.056 41.5305 100.787L44.1715 100.417C44.1715 98.92 43.5665 98.1716 42.3564 98.1716C41.2954 98.1716 40.3376 98.5329 39.4831 99.2555V97.8103C40.3491 97.2597 41.347 96.9844 42.4768 96.9844C44.5472 96.9844 45.5823 98.0798 45.5823 100.271V106ZM44.1715 101.544L42.0467 101.836C41.3929 101.928 40.8996 102.092 40.567 102.327C40.2344 102.556 40.0681 102.966 40.0681 103.557C40.0681 103.987 40.22 104.34 40.524 104.615C40.8337 104.885 41.2437 105.019 41.7542 105.019C42.4539 105.019 43.0302 104.776 43.4833 104.288C43.9421 103.795 44.1715 103.173 44.1715 102.421V101.544ZM55.5528 106H54.142V100.976C54.142 99.1064 53.4595 98.1716 52.0945 98.1716C51.3891 98.1716 50.8041 98.4383 50.3396 98.9717C49.8808 99.4993 49.6514 100.167 49.6514 100.976V106H48.2406V97.1909H49.6514V98.6534H49.6858C50.3511 97.5407 51.3146 96.9844 52.5763 96.9844C53.5398 96.9844 54.2767 97.297 54.7872 97.9221C55.2976 98.5415 55.5528 99.4391 55.5528 100.615V106ZM64.2242 105.596C63.5475 106.003 62.7446 106.206 61.8155 106.206C60.5595 106.206 59.5444 105.799 58.7702 104.985C58.0017 104.165 57.6174 103.104 57.6174 101.802C57.6174 100.351 58.0332 99.1867 58.8648 98.3093C59.6964 97.426 60.8061 96.9844 62.194 96.9844C62.9683 96.9844 63.6507 97.1278 64.2414 97.4146V98.8598C63.5876 98.401 62.888 98.1716 62.1424 98.1716C61.242 98.1716 60.5022 98.4956 59.9229 99.1437C59.3494 99.786 59.0627 100.632 59.0627 101.681C59.0627 102.714 59.3322 103.528 59.8713 104.125C60.4161 104.721 61.1445 105.019 62.0564 105.019C62.8249 105.019 63.5475 104.764 64.2242 104.254V105.596ZM73.4376 101.948H67.2179C67.2409 102.929 67.5047 103.686 68.0094 104.219C68.5141 104.753 69.208 105.019 70.0912 105.019C71.0834 105.019 71.9953 104.692 72.8269 104.039V105.363C72.0526 105.925 71.0289 106.206 69.7557 106.206C68.5112 106.206 67.5334 105.808 66.8222 105.011C66.1111 104.208 65.7555 103.081 65.7555 101.63C65.7555 100.259 66.1426 99.1437 66.9169 98.2834C67.6968 97.4174 68.6632 96.9844 69.8159 96.9844C70.9687 96.9844 71.8605 97.3572 72.4914 98.1028C73.1222 98.8483 73.4376 99.8835 73.4376 101.208V101.948ZM71.9924 100.752C71.9867 99.938 71.7888 99.3043 71.3988 98.8512C71.0146 98.3981 70.4783 98.1716 69.7901 98.1716C69.1249 98.1716 68.56 98.4096 68.0954 98.8856C67.6309 99.3616 67.3441 99.9839 67.2352 100.752H71.9924Z" fill="#FEBD23"/>
<path d="M144.308 16.701L142.851 18.6665C142.27 17.3697 141.631 16.0962 140.963 14.8459C142.183 15.4856 143.298 16.104 144.308 16.701Z" fill="#FEBD23"/>
<path d="M142.851 18.6666L136.405 27.494C134.086 20.8055 130.563 14.5991 126.011 9.18213C127.037 9.37597 128.043 9.61051 129.03 9.88576C131.969 10.7062 134.829 11.7842 137.578 13.1073C138.798 13.6889 139.936 14.2704 141.004 14.8519C141.649 16.0963 142.27 17.3698 142.851 18.6666Z" fill="#FEBD23"/>
<path d="M135.023 47.6839C136.428 49.9247 137.131 52.7876 137.131 56.2728C137.131 61.5762 136.145 66.0345 134.175 69.6476C132.316 73.1442 129.638 76.1372 126.37 78.3703C123.127 80.5798 119.52 82.1998 115.715 83.1562C114.879 83.3655 114.048 83.5516 113.218 83.7377C118.588 79.1614 122.9 73.4703 125.855 67.059C128.81 60.6476 130.337 53.6694 130.331 46.6081C130.331 45.3171 130.267 44.0436 130.168 42.7817C132.113 44.0555 133.767 45.7259 135.023 47.6839V47.6839Z" fill="#FEBD23"/>
<path d="M136.405 27.4939L131.876 33.6812C131.489 33.2886 131.056 32.9449 130.587 32.6577C129.673 32.0213 128.723 31.4388 127.741 30.9132C124.856 22.4186 119.691 14.8839 112.812 9.13551C114.883 8.75587 116.983 8.56126 119.089 8.55399C121.41 8.55067 123.727 8.7609 126.011 9.18203C130.563 14.599 134.086 20.8054 136.405 27.4939V27.4939Z" fill="#FEBD23"/>
<path d="M130.168 42.7759C130.267 44.0378 130.331 45.3113 130.331 46.6023C130.34 53.6632 128.816 60.6417 125.864 67.0541C122.912 73.4664 118.603 79.1592 113.235 83.7377C110.27 84.3336 107.253 84.6374 104.229 84.6449C102.672 84.6449 101.104 84.5635 99.5249 84.4123C107.857 80.4553 114.646 73.8475 118.833 65.62C123.021 57.3926 124.37 48.0084 122.671 38.9321C124.868 39.8396 127.002 40.8925 129.059 42.0839C129.442 42.2991 129.808 42.5375 130.168 42.7759Z" fill="#FEBD23"/>
<path d="M127.753 30.9014C127.387 30.6979 126.998 30.4886 126.591 30.2792C124.755 29.3387 122.846 28.5472 120.883 27.9125C120.151 27.6782 119.406 27.484 118.653 27.3309C115.358 20.9765 110.494 15.5717 104.525 11.6301C105.419 11.2405 106.337 10.8799 107.272 10.5601C109.079 9.93947 110.931 9.45927 112.811 9.12378C119.695 14.8706 124.865 22.4055 127.753 30.9014V30.9014Z" fill="#FEBD23"/>
<path d="M122.654 38.9264C124.353 48.0028 123.004 57.3869 118.816 65.6143C114.629 73.8418 107.84 80.4496 99.5079 84.4066C95.7661 84.0444 92.0699 83.308 88.4747 82.2085C85.7344 81.3878 83.0611 80.3574 80.4785 79.1264C80.8385 79.1264 81.1986 79.1264 81.5586 79.1264C86.6265 79.1306 91.625 77.9462 96.1537 75.668C100.682 73.3899 104.615 70.0814 107.638 66.0075H108.416C109.638 66.0688 110.859 65.8706 111.999 65.426C112.668 65.1597 113.214 64.654 113.532 64.0071C113.778 63.4463 113.904 62.8402 113.903 62.2277C113.903 60.9716 113.23 59.9423 111.9 59.134L111.604 58.9654C114.801 51.202 114.88 42.5017 111.824 34.6814C112.632 35.0894 113.466 35.443 114.321 35.7397C116.009 36.3329 117.945 37.0482 120.128 37.8855C120.999 38.2422 121.841 38.5892 122.654 38.9264Z" fill="#FEBD23"/>
<path d="M118.653 27.331C117.307 27.0318 115.932 26.8778 114.553 26.8716C113.6 26.869 112.654 27.0282 111.754 27.3426C110.948 27.6075 110.235 28.0978 109.699 28.7557C109.513 29.0044 109.365 29.2786 109.257 29.5698C105.981 24.2522 101.251 19.9861 95.6284 17.2766C95.9884 16.9626 96.3485 16.6544 96.7201 16.3578C99.105 14.4483 101.729 12.859 104.525 11.6301C110.494 15.5717 115.357 20.9765 118.653 27.331V27.331Z" fill="#FEBD23"/>
<path d="M111.842 34.7395C114.898 42.5599 114.819 51.2601 111.621 59.0235C110.088 58.1773 108.471 57.4951 106.795 56.9882C105.564 56.5928 104.281 56.145 102.963 55.6624C104.186 52.765 104.809 49.6493 104.795 46.5037C104.781 43.3582 104.13 40.2482 102.882 37.3617C101.633 34.4753 99.8132 31.8725 97.5315 29.7106C95.2498 27.5487 92.5539 25.8727 89.6069 24.784C91.1479 21.9295 93.1807 19.3703 95.6113 17.2244C101.243 19.9374 105.98 24.2121 109.258 29.5408C109.053 30.0852 108.953 30.6632 108.961 31.2446C108.962 31.7642 109.093 32.2753 109.341 32.7314C109.59 33.1875 109.948 33.574 110.384 33.8556C110.845 34.1893 111.333 34.4849 111.842 34.7395V34.7395Z" fill="#FEBD23"/>
<path d="M104.792 46.6023C104.797 49.7166 104.175 52.7999 102.963 55.6681C102.057 55.3425 101.145 54.9994 100.199 54.6272C97.4719 53.5711 94.8872 52.1783 92.5047 50.481C90.5732 49.1102 88.9981 47.2955 87.9115 45.1893C86.8548 42.9993 86.3295 40.5905 86.3784 38.1588C86.3005 33.8141 87.2601 29.5137 89.1774 25.6155C89.3167 25.3364 89.4735 25.0631 89.6245 24.7898C94.075 26.4387 97.9143 29.4131 100.626 33.3128C103.338 37.2125 104.792 41.8503 104.792 46.6023V46.6023Z" fill="#FEBD23"/>
<path d="M100.518 64.7748C102.823 65.5413 105.227 65.9645 107.655 66.0308C104.632 70.1047 100.699 73.4133 96.1708 75.6914C91.6422 77.9695 86.6437 79.1539 81.5758 79.1498C81.2157 79.1498 80.8557 79.1498 80.4957 79.1498C78.5405 78.2154 76.6628 77.1265 74.8804 75.8933L79.1833 69.7525C82.4788 70.0923 85.8087 69.7222 88.9496 68.6671C92.0905 67.612 94.9697 65.8962 97.3939 63.635C98.3888 64.0266 99.4302 64.4065 100.518 64.7748Z" fill="#FEBD23"/>
<path d="M93.7126 61.9194C94.8739 62.5009 96.0876 63.0824 97.3942 63.6116C94.97 65.8728 92.0908 67.5886 88.9499 68.6437C85.809 69.6988 82.4791 70.0689 79.1836 69.7291L87.534 57.8081C88.015 58.2663 88.5293 58.6881 89.0728 59.07C90.5366 60.1487 92.0887 61.1019 93.7126 61.9194V61.9194Z" fill="#FEBD23"/>
<path d="M82.1623 30.7503C82.1449 34.5004 81.3541 38.2065 79.8395 41.6363C78.2795 45.245 76.1021 48.5531 73.4054 51.4115C70.6915 54.3095 67.4745 56.6897 63.9111 58.4362C63.3304 58.7327 62.7032 59.0177 62.0877 59.2328C60.2529 56.3941 59.0582 53.189 58.5868 49.8406C58.1154 46.4922 58.3788 43.0812 59.3584 39.8452C59.8427 39.0207 60.2194 38.1373 60.4792 37.2168C60.543 37.0074 60.5895 36.7806 60.6359 36.5597C62.4934 32.6903 65.3839 29.4113 68.9875 27.0855C72.591 24.7598 76.7671 23.4782 81.0531 23.3826C81.7892 25.769 82.163 28.2527 82.1623 30.7503V30.7503Z" fill="#FEBD23"/>
<path d="M79.8918 20.2948C80.3478 21.2908 80.7358 22.3167 81.0532 23.3652C76.7671 23.4608 72.5911 24.7425 68.9875 27.0682C65.384 29.3939 62.4934 32.673 60.636 36.5423C60.9334 35.1965 61.0756 33.8209 61.0599 32.4426C61.1118 31.3265 60.9319 30.2117 60.5315 29.1687C60.2762 28.5113 59.8366 27.9418 59.2656 27.5288C58.7956 27.2224 58.247 27.0588 57.6861 27.0578H55.584C60.5458 20.4348 67.8439 15.957 75.9896 14.5378C77.6127 16.2167 78.9329 18.1645 79.8918 20.2948V20.2948Z" fill="#FEBD23"/>
<path d="M73.3011 12.2117C74.2647 12.9052 75.1645 13.6837 75.9897 14.5378C67.844 15.9569 60.5459 20.4347 55.5841 27.0577H48.9235L45.5497 43.1133H49.2603C49.1367 44.2722 49.0747 45.4369 49.0745 46.6024C49.0708 51.6186 50.2296 56.5672 52.46 61.0588H42.3559C38.7931 51.3659 38.9337 40.6963 42.7508 31.101C46.5678 21.5057 53.792 13.6618 63.0344 9.07735C66.7028 8.99957 70.2999 10.0978 73.3011 12.2117V12.2117Z" fill="#FEBD23"/>
<path d="M62.9588 9.09473H63.0342C53.7958 13.6789 46.5746 21.5198 42.7578 31.1112C38.941 40.7026 38.7978 51.368 42.3557 61.0587H41.6473L39.4871 71.2585C33.6577 61.2841 31.5519 49.5617 33.5447 38.1782C35.5374 26.7947 41.4994 16.4886 50.3693 9.09473H62.9588Z" fill="#FEBD23"/>
<path d="M58.3595 46.6023C58.3525 51.0854 59.6478 55.4738 62.0876 59.2327C59.0238 60.4502 55.7559 61.07 52.4597 61.0587C50.2267 56.5618 49.0678 51.6069 49.0742 46.5848C49.0744 45.4193 49.1364 44.2546 49.2601 43.0957H54.8347C55.5496 43.0714 56.2442 42.8523 56.8439 42.4619C57.6462 41.9464 58.3437 41.2834 58.8996 40.508C59.0638 40.2891 59.2169 40.062 59.3583 39.8276C58.6921 42.0238 58.3555 44.307 58.3595 46.6023V46.6023Z" fill="#FEBD23"/>
<path d="M37.24 9.09473H50.3695C41.4996 16.4886 35.5376 26.7947 33.5448 38.1782C31.5521 49.5617 33.6578 61.2841 39.4873 71.2585L36.8684 83.6854C28.8332 73.9997 24.1707 61.9546 23.5879 49.3761L29.7432 20.4226C31.792 16.3665 34.308 12.5646 37.24 9.09473V9.09473Z" fill="#FEBD23"/>
<path d="M32.1472 9.09473H37.2399C34.308 12.5646 31.7919 16.3665 29.7432 20.4226L32.1472 9.09473Z" fill="#FEBD23"/>
<path d="M36.8799 83.6855L36.7928 84.11H25.6202C22.94 80.1087 20.6954 75.8316 18.9248 71.3516L23.5704 49.3472C24.1552 61.9391 28.8283 73.9958 36.8799 83.6855V83.6855Z" fill="#FEBD23"/>
<path d="M25.6202 84.11H16.2188L18.9248 71.3516C20.6954 75.8315 22.94 80.1087 25.6202 84.11V84.11Z" fill="#FEBD23"/>
<path d="M126.011 9.18213C127.037 9.37597 128.043 9.61051 129.03 9.88576C131.969 10.7062 134.829 11.7842 137.578 13.1073C138.798 13.6889 139.936 14.2704 141.004 14.8519" stroke="#1F0D35" stroke-linecap="round" stroke-linejoin="round"/>
<path d="M29.7432 20.4228L32.1414 9.09497H37.2399" stroke="#1F0D35" stroke-linecap="round" stroke-linejoin="round"/>
<path d="M18.9248 71.3516L23.5994 49.3472" stroke="#1F0D35" stroke-linecap="round" stroke-linejoin="round"/>
<path d="M142.868 18.6665L136.405 27.4939" stroke="#1F0D35" stroke-linecap="round" stroke-linejoin="round"/>
<path d="M36.8798 83.6855L36.7869 84.11H25.6201" stroke="#1F0D35" stroke-linecap="round" stroke-linejoin="round"/>
<path d="M42.3556 61.0764H41.6471L39.4985 71.2587" stroke="#1F0D35" stroke-linecap="round" stroke-linejoin="round"/>
<path d="M113.235 83.7378C110.27 84.3337 107.253 84.6375 104.229 84.645C102.672 84.645 101.104 84.5635 99.5249 84.4124" stroke="#1F0D35" stroke-linecap="round" stroke-linejoin="round"/>
<path d="M104.525 11.6303C105.419 11.2407 106.337 10.8802 107.272 10.5604C109.079 9.93971 110.931 9.45951 112.811 9.12402" stroke="#1F0D35" stroke-linecap="round" stroke-linejoin="round"/>
<path d="M50.3691 9.09497H63.0341" stroke="#1F0D35" stroke-linecap="round" stroke-linejoin="round"/>
<path d="M122.654 38.9265C124.851 39.834 126.985 40.8869 129.042 42.0783C129.425 42.2993 129.791 42.5377 130.151 42.7761" stroke="#1F0D35" stroke-linecap="round" stroke-linejoin="round"/>
<path d="M127.753 30.9015C127.387 30.698 126.998 30.4887 126.591 30.2793C124.755 29.3388 122.846 28.5473 120.883 27.9126C120.151 27.6783 119.407 27.4841 118.653 27.3311" stroke="#1F0D35" stroke-linecap="round" stroke-linejoin="round"/>
<path d="M109.258 29.541C109.053 30.0854 108.953 30.6634 108.961 31.2448C108.962 31.7644 109.092 32.2756 109.341 32.7316C109.59 33.1877 109.948 33.5742 110.384 33.8558C110.845 34.1895 111.333 34.4851 111.842 34.7397" stroke="#1F0D35" stroke-linecap="round" stroke-linejoin="round"/>
<path d="M80.4957 79.1265C78.5405 78.1922 76.6628 77.1032 74.8804 75.87L79.1833 69.7292" stroke="#1F0D35" stroke-linecap="round" stroke-linejoin="round"/>
<path d="M62.0879 59.2329C59.0241 60.4504 55.7561 61.0701 52.46 61.0589" stroke="#1F0D35" stroke-linecap="round" stroke-linejoin="round"/>
<path d="M49.2603 43.1134H54.8349C55.5498 43.0891 56.2444 42.87 56.8441 42.4796C57.6464 41.9641 58.3439 41.3011 58.8998 40.5257C59.064 40.3067 59.2171 40.0797 59.3585 39.8453C59.6994 38.7132 60.1264 37.609 60.636 36.5423C60.9334 35.1965 61.0756 33.821 61.06 32.4427C61.1118 31.3265 60.9319 30.2117 60.5315 29.1688C60.2763 28.5113 59.8366 27.9418 59.2656 27.5289C58.7956 27.2224 58.247 27.0588 57.6861 27.0579H55.584" stroke="#1F0D35" stroke-linecap="round" stroke-linejoin="round"/>
<path d="M89.624 24.7899C91.165 21.9354 93.1978 19.3761 95.6284 17.2302" stroke="#1F0D35" stroke-linecap="round" stroke-linejoin="round"/>
<path d="M75.9897 14.5378C77.6123 16.2149 78.9325 18.1607 79.892 20.289C80.3479 21.285 80.736 22.3108 81.0534 23.3594" stroke="#1F0D35" stroke-linecap="round" stroke-linejoin="round"/>
<path d="M111.621 59.0235C110.088 58.1773 108.471 57.4951 106.795 56.9882C105.564 56.5928 104.281 56.145 102.963 55.6624" stroke="#1F0D35" stroke-linecap="round" stroke-linejoin="round"/>
<path d="M97.394 63.6118C98.389 63.9995 99.4303 64.3872 100.518 64.7748C102.823 65.5413 105.227 65.9645 107.655 66.0309" stroke="#1F0D35" stroke-linecap="round" stroke-linejoin="round"/>
<path d="M18.9248 71.3516L16.2188 84.11H25.6202C22.94 80.1087 20.6954 75.8315 18.9248 71.3516V71.3516Z" stroke="#1F0D35" stroke-linecap="round" stroke-linejoin="round"/>
<path d="M39.4874 71.2587C33.6579 61.2843 31.5522 49.562 33.5449 38.1784C35.5377 26.7949 41.4997 16.4889 50.3696 9.09497H37.2401C34.3081 12.5649 31.7921 16.3667 29.7434 20.4228L23.5996 49.3473C24.1762 61.9358 28.839 73.9922 36.8801 83.6856L39.4874 71.2587Z" stroke="#1F0D35" stroke-linecap="round" stroke-linejoin="round"/>
<path d="M63.0343 9.09497C53.7959 13.6791 46.5747 21.52 42.7579 31.1114C38.9411 40.7028 38.7979 51.3683 42.3558 61.059H52.4599C50.227 56.5621 49.068 51.6072 49.0745 46.5851C49.0746 45.4196 49.1367 44.2549 49.2603 43.096H45.5497L48.9235 27.0405H55.584C60.5489 20.424 67.8466 15.9527 75.9896 14.5379C75.1645 13.6838 74.2647 12.9054 73.301 12.2119C70.2978 10.1041 66.7008 9.01209 63.0343 9.09497V9.09497Z" stroke="#1F0D35" stroke-linecap="round" stroke-linejoin="round"/>
<path d="M62.0877 59.233C62.7032 58.9887 63.3071 58.7328 63.9111 58.4363C67.4745 56.6898 70.6915 54.3096 73.4054 51.4116C76.1021 48.5532 78.2795 45.2451 79.8395 41.6364C81.3541 38.2066 82.1449 34.5006 82.1623 30.7504C82.1648 28.2469 81.7909 25.7573 81.0531 23.3652C76.7671 23.4609 72.591 24.7425 68.9875 27.0682C65.3839 29.3939 62.4934 32.673 60.6359 36.5423C60.5895 36.7633 60.543 36.9901 60.4792 37.1994C60.2208 38.126 59.8441 39.0153 59.3584 39.8453C58.3788 43.0813 58.1154 46.4924 58.5868 49.8407C59.0582 53.1891 60.2529 56.3942 62.0877 59.233V59.233Z" stroke="#1F0D35" stroke-linecap="round" stroke-linejoin="round"/>
<path d="M142.851 18.6665L144.291 16.701C143.28 16.104 142.171 15.4856 140.963 14.8459C141.649 16.0962 142.27 17.3697 142.851 18.6665Z" stroke="#1F0D35" stroke-linecap="round" stroke-linejoin="round"/>
<path d="M131.875 33.6812C131.875 33.6812 131.882 33.7293 131.875 33.6812V33.6812Z" stroke="#1F0D35" stroke-linecap="round" stroke-linejoin="round"/>
<path d="M113.235 83.7379C114.066 83.5751 114.896 83.389 115.732 83.1564C119.536 82.2071 123.143 80.595 126.388 78.3938C129.655 76.1607 132.333 73.1676 134.193 69.6711C136.167 66.0463 137.152 61.588 137.148 56.2963C137.148 52.8072 136.446 49.9442 135.04 47.7073C133.785 45.7494 132.13 44.0789 130.186 42.8052C130.285 44.0671 130.348 45.3406 130.348 46.6315C130.351 53.6889 128.823 60.6626 125.868 67.0697C122.913 73.4768 118.603 79.1641 113.235 83.7379V83.7379Z" stroke="#1F0D35" stroke-linecap="round" stroke-linejoin="round"/>
<path d="M126.01 9.18208C123.735 8.76432 121.425 8.55604 119.112 8.55987C117.006 8.56714 114.906 8.76174 112.834 9.14138C119.707 14.8865 124.868 22.4147 127.752 30.9016C128.734 31.4272 129.684 32.0097 130.598 32.6461C131.068 32.9333 131.501 33.277 131.887 33.6696L136.416 27.4823C134.093 20.7971 130.566 14.5947 126.01 9.18208V9.18208Z" stroke="#1F0D35" stroke-linecap="round" stroke-linejoin="round"/>
<path d="M122.654 38.9264C121.841 38.5891 121.005 38.2615 120.145 37.9436C117.962 37.1063 116.026 36.391 114.338 35.7979C113.484 35.5011 112.649 35.1476 111.841 34.7395C114.897 42.5599 114.818 51.2601 111.621 59.0235L111.917 59.1921C113.247 60.0004 113.92 61.0297 113.92 62.2858C113.921 62.8983 113.795 63.5044 113.549 64.0652C113.231 64.7121 112.685 65.2178 112.016 65.4841C110.876 65.9287 109.655 66.1269 108.433 66.0656H107.655C104.632 70.1395 100.699 73.448 96.1708 75.7261C91.6421 78.0043 86.6436 79.1887 81.5757 79.1845C81.2157 79.1845 80.8556 79.1845 80.4956 79.1845C83.0782 80.4155 85.7515 81.4459 88.4918 82.2666C92.087 83.3661 95.7832 84.1025 99.5249 84.4647C107.857 80.5077 114.646 73.8999 118.833 65.6724C123.021 57.445 124.37 48.0609 122.671 38.9845L122.654 38.9264Z" stroke="#1F0D35" stroke-linecap="round" stroke-linejoin="round"/>
<path d="M95.6284 17.2478C101.251 19.9573 105.981 24.2234 109.257 29.541C109.365 29.2498 109.513 28.9756 109.699 28.7269C110.237 28.0754 110.951 27.5913 111.754 27.3312C112.654 27.0169 113.6 26.8576 114.553 26.8602C115.932 26.8665 117.307 27.0205 118.653 27.3196C115.356 20.9694 110.492 15.5687 104.525 11.6304C101.73 12.8502 99.1066 14.4297 96.7201 16.329C96.3485 16.6256 95.9884 16.9338 95.6284 17.2478Z" stroke="#1F0D35" stroke-linecap="round" stroke-linejoin="round"/>
<path d="M89.6245 24.79C89.4735 25.0634 89.3167 25.3367 89.1774 25.6158C87.2601 29.5139 86.3005 33.8144 86.3784 38.159C86.3295 40.5907 86.8548 42.9996 87.9115 45.1895C88.9981 47.2958 90.5732 49.1104 92.5047 50.4813C94.8872 52.1785 97.4719 53.5714 100.199 54.6275C101.145 54.9996 102.057 55.3427 102.963 55.6684C104.186 52.771 104.809 49.6553 104.795 46.5098C104.781 43.3642 104.13 40.2542 102.882 37.3678C101.633 34.4813 99.8134 31.8785 97.5316 29.7166C95.2499 27.5547 92.5541 25.8787 89.6071 24.79H89.6245Z" stroke="#1F0D35" stroke-linecap="round" stroke-linejoin="round"/>
<path d="M87.5393 57.8025L79.189 69.7235C82.4844 70.0633 85.8144 69.6932 88.9553 68.6381C92.0962 67.5829 94.9753 65.8672 97.3995 63.606C96.093 63.0768 94.8561 62.5127 93.7179 61.9138C92.0921 61.0966 90.5381 60.1434 89.0724 59.0644C88.5289 58.6825 88.0146 58.2607 87.5335 57.8025" stroke="#1F0D35" stroke-linecap="round" stroke-linejoin="round"/>
</g>
<defs>
<clipPath id="clip0_24_1505">
<rect width="154" height="115" fill="white"/>
</clipPath>
</defs>
</svg>
