<svg width="1365" height="687" viewBox="0 0 1365 687" fill="none" xmlns="http://www.w3.org/2000/svg">
<path d="M1203.56 112.502C1198.9 114.73 1194.63 117.536 1194.98 118.18C1195.48 119.099 1202.59 117.125 1210.85 113.77C1219.11 110.414 1225.41 106.949 1224.91 106.03C1224.57 105.403 1220.46 106.082 1215.71 107.665" stroke="#FEBD23" stroke-width="0.5" stroke-linecap="square"/>
<path d="M1217.26 108.646V106.388H1216.14V105.258H1215.01V104.129H1212.75V103H1207.1V104.129H1204.84V105.258H1203.71V106.388H1202.59V108.646H1201.46V114.292H1202.59V116.55H1203.71V117.679H1204.84V118.808H1207.1V119.938H1212.75V118.808H1215.01V117.679H1216.14V116.55H1217.26V114.292H1218.39V108.646H1217.26Z" fill="#FEBD23"/>
<path d="M1342.56 303.502C1337.9 305.73 1333.63 308.536 1333.98 309.18C1334.48 310.099 1341.59 308.125 1349.85 304.77C1358.11 301.414 1364.41 297.949 1363.91 297.03C1363.57 296.403 1359.46 297.082 1354.71 298.665" stroke="#FEBD23" stroke-width="0.5" stroke-linecap="square"/>
<path d="M1356.26 299.646V297.388H1355.14V296.258H1354.01V295.129H1351.75V294H1346.1V295.129H1343.84V296.258H1342.71V297.388H1341.59V299.646H1340.46V305.292H1341.59V307.55H1342.71V308.679H1343.84V309.808H1346.1V310.938H1351.75V309.808H1354.01V308.679H1355.14V307.55H1356.26V305.292H1357.39V299.646H1356.26Z" fill="#FEBD23"/>
<path d="M819.558 658.502C814.904 660.73 810.628 663.536 810.979 664.18C811.48 665.099 818.585 663.125 826.85 659.77C835.114 656.414 841.408 652.949 840.907 652.03C840.566 651.403 836.459 652.082 831.706 653.665" stroke="#FEBD23" stroke-width="0.5" stroke-linecap="square"/>
<path d="M833.264 654.646V652.388H832.135V651.258H831.006V650.129H828.748V649H823.102V650.129H820.844V651.258H819.714V652.388H818.585V654.646H817.456V660.292H818.585V662.55H819.714V663.679H820.844V664.808H823.102V665.938H828.748V664.808H831.006V663.679H832.135V662.55H833.264V660.292H834.394V654.646H833.264Z" fill="#FEBD23"/>
<path d="M654.558 632.502C649.904 634.73 645.628 637.536 645.979 638.18C646.48 639.099 653.585 637.125 661.85 633.77C670.114 630.414 676.408 626.949 675.907 626.03C675.566 625.403 671.459 626.082 666.706 627.665" stroke="#492E8B" stroke-width="0.5" stroke-linecap="square"/>
<path d="M668.264 628.646V626.388H667.135V625.258H666.006V624.129H663.748V623H658.102V624.129H655.844V625.258H654.714V626.388H653.585V628.646H652.456V634.292H653.585V636.55H654.714V637.679H655.844V638.808H658.102V639.938H663.748V638.808H666.006V637.679H667.135V636.55H668.264V634.292H669.394V628.646H668.264Z" fill="#492E8B"/>
<path d="M16.5584 417.502C11.9043 419.73 7.62844 422.536 7.97897 423.18C8.47968 424.099 15.5853 422.125 23.8498 418.77C32.1143 415.414 38.4081 411.949 37.9073 411.03C37.5661 410.403 33.4588 411.082 28.7056 412.665" stroke="#492E8B" stroke-width="0.5" stroke-linecap="square"/>
<path d="M30.2644 413.646V411.388H29.1352V410.258H28.0061V409.129H25.7477V408H20.1019V409.129H17.8436V410.258H16.7144V411.388H15.5852V413.646H14.4561V419.292H15.5852V421.55H16.7144V422.679H17.8436V423.808H20.1019V424.938H25.7477V423.808H28.0061V422.679H29.1352V421.55H30.2644V419.292H31.3936V413.646H30.2644Z" fill="#492E8B"/>
<path d="M753.558 91.5021C748.904 93.7298 744.628 96.5364 744.979 97.18C745.48 98.0994 752.585 96.1248 760.85 92.7696C769.114 89.4144 775.408 85.9492 774.907 85.0299C774.566 84.4033 770.459 85.0817 765.706 86.6646" stroke="#492E8B" stroke-width="0.5" stroke-linecap="square"/>
<path d="M767.264 87.6458V85.3875H766.135V84.2583H765.006V83.1292H762.748V82H757.102V83.1292H754.844V84.2583H753.714V85.3875H752.585V87.6458H751.456V93.2917H752.585V95.55H753.714V96.6792H754.844V97.8083H757.102V98.9375H762.748V97.8083H765.006V96.6792H766.135V95.55H767.264V93.2917H768.394V87.6458H767.264Z" fill="#492E8B"/>
<path d="M250.558 129.502C245.904 131.73 241.628 134.536 241.979 135.18C242.48 136.099 249.585 134.125 257.85 130.77C266.114 127.414 272.408 123.949 271.907 123.03C271.566 122.403 267.459 123.082 262.706 124.665" stroke="#492E8B" stroke-width="0.5" stroke-linecap="square"/>
<path d="M264.264 125.646V123.388H263.135V122.258H262.006V121.129H259.748V120H254.102V121.129H251.844V122.258H250.714V123.388H249.585V125.646H248.456V131.292H249.585V133.55H250.714V134.679H251.844V135.808H254.102V136.938H259.748V135.808H262.006V134.679H263.135V133.55H264.264V131.292H265.394V125.646H264.264Z" fill="#492E8B"/>
<path d="M265.558 445.502C260.904 447.73 256.628 450.536 256.979 451.18C257.48 452.099 264.585 450.125 272.85 446.77C281.114 443.414 287.408 439.949 286.907 439.03C286.566 438.403 282.459 439.082 277.706 440.665" stroke="#FEBD23" stroke-width="0.5" stroke-linecap="square"/>
<path d="M279.264 441.646V439.388H278.135V438.258H277.006V437.129H274.748V436H269.102V437.129H266.844V438.258H265.714V439.388H264.585V441.646H263.456V447.292H264.585V449.55H265.714V450.679H266.844V451.808H269.102V452.938H274.748V451.808H277.006V450.679H278.135V449.55H279.264V447.292H280.394V441.646H279.264Z" fill="#FEBD23"/>
<path d="M9.55842 198.502C4.90433 200.73 0.628441 203.536 0.978965 204.18C1.47968 205.099 8.58529 203.125 16.8498 199.77C25.1143 196.414 31.4081 192.949 30.9073 192.03C30.5661 191.403 26.4588 192.082 21.7056 193.665" stroke="#FEBD23" stroke-width="0.5" stroke-linecap="square"/>
<path d="M23.2644 194.646V192.388H22.1352V191.258H21.0061V190.129H18.7477V189H13.1019V190.129H10.8436V191.258H9.71439V192.388H8.58522V194.646H7.45605V200.292H8.58522V202.55H9.71439V203.679H10.8436V204.808H13.1019V205.938H18.7477V204.808H21.0061V203.679H22.1352V202.55H23.2644V200.292H24.3936V194.646H23.2644Z" fill="#FEBD23"/>
<path d="M131.558 335.502C126.904 337.73 122.628 340.536 122.979 341.18C123.48 342.099 130.585 340.125 138.85 336.77C147.114 333.414 153.408 329.949 152.907 329.03C152.566 328.403 148.459 329.082 143.706 330.665" stroke="#F37A2D" stroke-width="0.5" stroke-linecap="square"/>
<path d="M145.264 331.646V329.388H144.135V328.258H143.006V327.129H140.748V326H135.102V327.129H132.844V328.258H131.714V329.388H130.585V331.646H129.456V337.292H130.585V339.55H131.714V340.679H132.844V341.808H135.102V342.938H140.748V341.808H143.006V340.679H144.135V339.55H145.264V337.292H146.394V331.646H145.264Z" fill="#F37A2D"/>
<path d="M711.558 486.502C706.904 488.73 702.628 491.536 702.979 492.18C703.48 493.099 710.585 491.125 718.85 487.77C727.114 484.414 733.408 480.949 732.907 480.03C732.566 479.403 728.459 480.082 723.706 481.665" stroke="#F37A2D" stroke-width="0.5" stroke-linecap="square"/>
<path d="M725.264 482.646V480.388H724.135V479.258H723.006V478.129H720.748V477H715.102V478.129H712.844V479.258H711.714V480.388H710.585V482.646H709.456V488.292H710.585V490.55H711.714V491.679H712.844V492.808H715.102V493.938H720.748V492.808H723.006V491.679H724.135V490.55H725.264V488.292H726.394V482.646H725.264Z" fill="#F37A2D"/>
<path d="M303.558 658.502C298.904 660.73 294.628 663.536 294.979 664.18C295.48 665.099 302.585 663.125 310.85 659.77C319.114 656.414 325.408 652.949 324.907 652.03C324.566 651.403 320.459 652.082 315.706 653.665" stroke="#F37A2D" stroke-width="0.5" stroke-linecap="square"/>
<path d="M317.264 654.646V652.388H316.135V651.258H315.006V650.129H312.748V649H307.102V650.129H304.844V651.258H303.714V652.388H302.585V654.646H301.456V660.292H302.585V662.55H303.714V663.679H304.844V664.808H307.102V665.938H312.748V664.808H315.006V663.679H316.135V662.55H317.264V660.292H318.394V654.646H317.264Z" fill="#F37A2D"/>
<path d="M1317.56 669.502C1312.9 671.73 1308.63 674.536 1308.98 675.18C1309.48 676.099 1316.59 674.125 1324.85 670.77C1333.11 667.414 1339.41 663.949 1338.91 663.03C1338.57 662.403 1334.46 663.082 1329.71 664.665" stroke="#F37A2D" stroke-width="0.5" stroke-linecap="square"/>
<path d="M1331.26 665.646V663.388H1330.14V662.258H1329.01V661.129H1326.75V660H1321.1V661.129H1318.84V662.258H1317.71V663.388H1316.59V665.646H1315.46V671.292H1316.59V673.55H1317.71V674.679H1318.84V675.808H1321.1V676.938H1326.75V675.808H1329.01V674.679H1330.14V673.55H1331.26V671.292H1332.39V665.646H1331.26Z" fill="#F37A2D"/>
<path d="M617.558 158.502C612.904 160.73 608.628 163.536 608.979 164.18C609.48 165.099 616.585 163.125 624.85 159.77C633.114 156.414 639.408 152.949 638.907 152.03C638.566 151.403 634.459 152.082 629.706 153.665" stroke="#FEBD23" stroke-width="0.5" stroke-linecap="square"/>
<path d="M631.264 154.646V152.388H630.135V151.258H629.006V150.129H626.748V149H621.102V150.129H618.844V151.258H617.714V152.388H616.585V154.646H615.456V160.292H616.585V162.55H617.714V163.679H618.844V164.808H621.102V165.938H626.748V164.808H629.006V163.679H630.135V162.55H631.264V160.292H632.394V154.646H631.264Z" fill="#FEBD23"/>
<path d="M9.55842 615.502C4.90433 617.73 0.628441 620.536 0.978965 621.18C1.47968 622.099 8.58529 620.125 16.8498 616.77C25.1143 613.414 31.4081 609.949 30.9073 609.03C30.5661 608.403 26.4588 609.082 21.7056 610.665" stroke="#FEBD23" stroke-width="0.5" stroke-linecap="square"/>
<path d="M23.2644 611.646V609.388H22.1352V608.258H21.0061V607.129H18.7477V606H13.1019V607.129H10.8436V608.258H9.71439V609.388H8.58522V611.646H7.45605V617.292H8.58522V619.55H9.71439V620.679H10.8436V621.808H13.1019V622.938H18.7477V621.808H21.0061V620.679H22.1352V619.55H23.2644V617.292H24.3936V611.646H23.2644Z" fill="#FEBD23"/>
<path d="M668.074 349.52C663.722 346.6 663.183 345.59 663.633 341.199C663.661 340.929 663.47 340.653 663.17 340.529C662.87 340.406 662.539 340.466 662.369 340.678C659.595 344.107 658.499 344.444 653.355 343.44C653.039 343.378 652.746 343.508 652.644 343.755C652.542 344.002 652.657 344.302 652.925 344.481C657.279 347.4 657.818 348.411 657.362 352.798C657.334 353.069 657.525 353.345 657.825 353.469C658.125 353.593 658.456 353.532 658.626 353.321C661.408 349.892 662.502 349.557 667.644 350.561C667.961 350.623 668.254 350.493 668.356 350.246C668.458 349.999 668.342 349.7 668.074 349.52L668.074 349.52ZM658.866 350.954C658.88 348.336 658.11 346.895 655.699 345.018C658.733 345.39 660.293 344.91 662.132 343.046C662.121 345.665 662.891 347.107 665.301 348.984C662.267 348.612 660.706 349.09 658.866 350.954Z" fill="#FEBD23"/>
<path d="M176.103 196.235C171.751 193.315 171.212 192.305 171.661 187.914C171.689 187.644 171.498 187.368 171.198 187.244C170.899 187.12 170.567 187.181 170.397 187.393C167.623 190.822 166.527 191.159 161.384 190.155C161.067 190.093 160.774 190.223 160.672 190.47C160.57 190.717 160.685 191.017 160.954 191.196C165.307 194.115 165.846 195.125 165.391 199.513C165.362 199.784 165.553 200.06 165.853 200.184C166.153 200.308 166.485 200.247 166.654 200.036C169.436 196.607 170.53 196.272 175.673 197.276C175.989 197.338 176.282 197.208 176.384 196.961C176.486 196.714 176.37 196.415 176.103 196.235L176.103 196.235ZM166.894 197.668C166.909 195.051 166.139 193.61 163.727 191.733C166.761 192.105 168.321 191.625 170.16 189.761C170.149 192.38 170.919 193.822 173.329 195.699C170.296 195.327 168.734 195.805 166.894 197.668Z" fill="#F37A2D"/>
<path d="M931.103 84.235C926.751 81.3152 926.212 80.3049 926.661 75.9143C926.689 75.6442 926.498 75.3681 926.198 75.2442C925.899 75.1203 925.567 75.1807 925.397 75.3932C922.623 78.8221 921.527 79.1586 916.384 78.1549C916.067 78.0932 915.774 78.2233 915.672 78.4703C915.57 78.7172 915.685 79.0173 915.954 79.196C920.307 82.1153 920.846 83.1255 920.391 87.5126C920.362 87.7837 920.553 88.0598 920.853 88.1837C921.153 88.3076 921.485 88.2473 921.654 88.0358C924.436 84.6072 925.53 84.2715 930.673 85.2761C930.989 85.3378 931.282 85.2077 931.384 84.9607C931.486 84.7141 931.37 84.4146 931.103 84.235L931.103 84.235ZM921.894 85.6683C921.909 83.0509 921.139 81.6095 918.727 79.7325C921.761 80.1053 923.321 79.6247 925.16 77.7612C925.149 80.3802 925.919 81.8217 928.329 83.6992C925.296 83.3267 923.734 83.805 921.894 85.6683Z" fill="#F37A2D"/>
<path d="M1320.1 489.235C1315.75 486.315 1315.21 485.305 1315.66 480.914C1315.69 480.644 1315.5 480.368 1315.2 480.244C1314.9 480.12 1314.57 480.181 1314.4 480.393C1311.62 483.822 1310.53 484.159 1305.38 483.155C1305.07 483.093 1304.77 483.223 1304.67 483.47C1304.57 483.717 1304.69 484.017 1304.95 484.196C1309.31 487.115 1309.85 488.125 1309.39 492.513C1309.36 492.784 1309.55 493.06 1309.85 493.184C1310.15 493.308 1310.48 493.247 1310.65 493.036C1313.44 489.607 1314.53 489.272 1319.67 490.276C1319.99 490.338 1320.28 490.208 1320.38 489.961C1320.49 489.714 1320.37 489.415 1320.1 489.235L1320.1 489.235ZM1310.89 490.668C1310.91 488.051 1310.14 486.61 1307.73 484.733C1310.76 485.105 1312.32 484.625 1314.16 482.761C1314.15 485.38 1314.92 486.822 1317.33 488.699C1314.3 488.327 1312.73 488.805 1310.89 490.668Z" fill="#F37A2D"/>
<path d="M1345.1 159.235C1340.75 156.315 1340.21 155.305 1340.66 150.914C1340.69 150.644 1340.5 150.368 1340.2 150.244C1339.9 150.12 1339.57 150.181 1339.4 150.393C1336.62 153.822 1335.53 154.159 1330.38 153.155C1330.07 153.093 1329.77 153.223 1329.67 153.47C1329.57 153.717 1329.69 154.017 1329.95 154.196C1334.31 157.115 1334.85 158.125 1334.39 162.513C1334.36 162.784 1334.55 163.06 1334.85 163.184C1335.15 163.308 1335.48 163.247 1335.65 163.036C1338.44 159.607 1339.53 159.272 1344.67 160.276C1344.99 160.338 1345.28 160.208 1345.38 159.961C1345.49 159.714 1345.37 159.415 1345.1 159.235L1345.1 159.235ZM1335.89 160.668C1335.91 158.051 1335.14 156.61 1332.73 154.733C1335.76 155.105 1337.32 154.625 1339.16 152.761C1339.15 155.38 1339.92 156.822 1342.33 158.699C1339.3 158.327 1337.73 158.805 1335.89 160.668Z" fill="#492E8B"/>
<path d="M474.103 223.235C469.751 220.315 469.212 219.305 469.661 214.914C469.689 214.644 469.498 214.368 469.198 214.244C468.899 214.12 468.567 214.181 468.397 214.393C465.623 217.822 464.527 218.159 459.384 217.155C459.067 217.093 458.774 217.223 458.672 217.47C458.57 217.717 458.685 218.017 458.954 218.196C463.307 221.115 463.846 222.125 463.391 226.513C463.362 226.784 463.553 227.06 463.853 227.184C464.153 227.308 464.485 227.247 464.654 227.036C467.436 223.607 468.53 223.272 473.673 224.276C473.989 224.338 474.282 224.208 474.384 223.961C474.486 223.714 474.37 223.415 474.103 223.235L474.103 223.235ZM464.894 224.668C464.909 222.051 464.139 220.61 461.727 218.733C464.761 219.105 466.321 218.625 468.16 216.761C468.149 219.38 468.919 220.822 471.329 222.699C468.296 222.327 466.734 222.805 464.894 224.668Z" fill="#492E8B"/>
<path d="M82.1026 12.235C77.7507 9.31519 77.2117 8.30486 77.6615 3.91432C77.6892 3.64419 77.4982 3.36808 77.1984 3.24422C76.8985 3.12035 76.5671 3.18066 76.397 3.39316C73.6229 6.82207 72.527 7.15856 67.3836 6.15486C67.0672 6.09316 66.774 6.22329 66.672 6.47025C66.57 6.71722 66.6854 7.01734 66.9536 7.19595C71.3071 10.1153 71.8461 11.1255 71.3906 15.5126C71.3624 15.7837 71.5534 16.0598 71.8533 16.1837C72.1531 16.3076 72.4846 16.2473 72.6543 16.0358C75.4359 12.6072 76.53 12.2715 81.6725 13.2761C81.989 13.3378 82.2822 13.2077 82.3842 12.9607C82.4861 12.7141 82.3703 12.4146 82.1026 12.235L82.1026 12.235ZM72.8938 13.6683C72.9086 11.0509 72.1386 9.60952 69.727 7.73255C72.7615 8.10532 74.321 7.62469 76.1602 5.76115C76.1491 8.38017 76.9194 9.82166 79.3294 11.6992C76.2958 11.3267 74.7343 11.805 72.8938 13.6683Z" fill="#492E8B"/>
<path d="M131.103 679.235C126.751 676.315 126.212 675.305 126.661 670.914C126.689 670.644 126.498 670.368 126.198 670.244C125.899 670.12 125.567 670.181 125.397 670.393C122.623 673.822 121.527 674.159 116.384 673.155C116.067 673.093 115.774 673.223 115.672 673.47C115.57 673.717 115.685 674.017 115.954 674.196C120.307 677.115 120.846 678.125 120.391 682.513C120.362 682.784 120.553 683.06 120.853 683.184C121.153 683.308 121.485 683.247 121.654 683.036C124.436 679.607 125.53 679.272 130.673 680.276C130.989 680.338 131.282 680.208 131.384 679.961C131.486 679.714 131.37 679.415 131.103 679.235L131.103 679.235ZM121.894 680.668C121.909 678.051 121.139 676.61 118.727 674.733C121.761 675.105 123.321 674.625 125.16 672.761C125.149 675.38 125.919 676.822 128.329 678.699C125.296 678.327 123.734 678.805 121.894 680.668Z" fill="#492E8B"/>
<path d="M741.103 242.235C736.751 239.315 736.212 238.305 736.661 233.914C736.689 233.644 736.498 233.368 736.198 233.244C735.899 233.12 735.567 233.181 735.397 233.393C732.623 236.822 731.527 237.159 726.384 236.155C726.067 236.093 725.774 236.223 725.672 236.47C725.57 236.717 725.685 237.017 725.954 237.196C730.307 240.115 730.846 241.125 730.391 245.513C730.362 245.784 730.553 246.06 730.853 246.184C731.153 246.308 731.485 246.247 731.654 246.036C734.436 242.607 735.53 242.272 740.673 243.276C740.989 243.338 741.282 243.208 741.384 242.961C741.486 242.714 741.37 242.415 741.103 242.235L741.103 242.235ZM731.894 243.668C731.909 241.051 731.139 239.61 728.727 237.733C731.761 238.105 733.321 237.625 735.16 235.761C735.149 238.38 735.919 239.822 738.329 241.699C735.296 241.327 733.734 241.805 731.894 243.668Z" fill="#492E8B"/>
<path d="M954.103 625.235C949.751 622.315 949.212 621.305 949.661 616.914C949.689 616.644 949.498 616.368 949.198 616.244C948.899 616.12 948.567 616.181 948.397 616.393C945.623 619.822 944.527 620.159 939.384 619.155C939.067 619.093 938.774 619.223 938.672 619.47C938.57 619.717 938.685 620.017 938.954 620.196C943.307 623.115 943.846 624.125 943.391 628.513C943.362 628.784 943.553 629.06 943.853 629.184C944.153 629.308 944.485 629.247 944.654 629.036C947.436 625.607 948.53 625.272 953.673 626.276C953.989 626.338 954.282 626.208 954.384 625.961C954.486 625.714 954.37 625.415 954.103 625.235L954.103 625.235ZM944.894 626.668C944.909 624.051 944.139 622.61 941.727 620.733C944.761 621.105 946.321 620.625 948.16 618.761C948.149 621.38 948.919 622.822 951.329 624.699C948.296 624.327 946.734 624.805 944.894 626.668Z" fill="#492E8B"/>
<path d="M1168.1 656.235C1163.75 653.315 1163.21 652.305 1163.66 647.914C1163.69 647.644 1163.5 647.368 1163.2 647.244C1162.9 647.12 1162.57 647.181 1162.4 647.393C1159.62 650.822 1158.53 651.159 1153.38 650.155C1153.07 650.093 1152.77 650.223 1152.67 650.47C1152.57 650.717 1152.69 651.017 1152.95 651.196C1157.31 654.115 1157.85 655.125 1157.39 659.513C1157.36 659.784 1157.55 660.06 1157.85 660.184C1158.15 660.308 1158.48 660.247 1158.65 660.036C1161.44 656.607 1162.53 656.272 1167.67 657.276C1167.99 657.338 1168.28 657.208 1168.38 656.961C1168.49 656.714 1168.37 656.415 1168.1 656.235L1168.1 656.235ZM1158.89 657.668C1158.91 655.051 1158.14 653.61 1155.73 651.733C1158.76 652.105 1160.32 651.625 1162.16 649.761C1162.15 652.38 1162.92 653.822 1165.33 655.699C1162.3 655.327 1160.73 655.805 1158.89 657.668Z" fill="#FEBD23"/>
<path d="M538.103 661.235C533.751 658.315 533.212 657.305 533.661 652.914C533.689 652.644 533.498 652.368 533.198 652.244C532.899 652.12 532.567 652.181 532.397 652.393C529.623 655.822 528.527 656.159 523.384 655.155C523.067 655.093 522.774 655.223 522.672 655.47C522.57 655.717 522.685 656.017 522.954 656.196C527.307 659.115 527.846 660.125 527.391 664.513C527.362 664.784 527.553 665.06 527.853 665.184C528.153 665.308 528.485 665.247 528.654 665.036C531.436 661.607 532.53 661.272 537.673 662.276C537.989 662.338 538.282 662.208 538.384 661.961C538.486 661.714 538.37 661.415 538.103 661.235L538.103 661.235ZM528.894 662.668C528.909 660.051 528.139 658.61 525.727 656.733C528.761 657.105 530.321 656.625 532.16 654.761C532.149 657.38 532.919 658.822 535.329 660.699C532.296 660.327 530.734 660.805 528.894 662.668Z" fill="#F37A2D"/>
<path d="M103.103 470.235C98.7507 467.315 98.2117 466.305 98.6615 461.914C98.6892 461.644 98.4982 461.368 98.1984 461.244C97.8985 461.12 97.5671 461.181 97.397 461.393C94.6229 464.822 93.527 465.159 88.3836 464.155C88.0672 464.093 87.774 464.223 87.672 464.47C87.57 464.717 87.6854 465.017 87.9536 465.196C92.3071 468.115 92.8461 469.125 92.3906 473.513C92.3624 473.784 92.5534 474.06 92.8533 474.184C93.1531 474.308 93.4846 474.247 93.6543 474.036C96.4359 470.607 97.53 470.272 102.673 471.276C102.989 471.338 103.282 471.208 103.384 470.961C103.486 470.714 103.37 470.415 103.103 470.235L103.103 470.235ZM93.8938 471.668C93.9086 469.051 93.1386 467.61 90.727 465.733C93.7615 466.105 95.321 465.625 97.1602 463.761C97.1491 466.38 97.9194 467.822 100.329 469.699C97.2958 469.327 95.7343 469.805 93.8938 471.668Z" fill="#F37A2D"/>
<path d="M495.103 437.235C490.751 434.315 490.212 433.305 490.661 428.914C490.689 428.644 490.498 428.368 490.198 428.244C489.899 428.12 489.567 428.181 489.397 428.393C486.623 431.822 485.527 432.159 480.384 431.155C480.067 431.093 479.774 431.223 479.672 431.47C479.57 431.717 479.685 432.017 479.954 432.196C484.307 435.115 484.846 436.125 484.391 440.513C484.362 440.784 484.553 441.06 484.853 441.184C485.153 441.308 485.485 441.247 485.654 441.036C488.436 437.607 489.53 437.272 494.673 438.276C494.989 438.338 495.282 438.208 495.384 437.961C495.486 437.714 495.37 437.415 495.103 437.235L495.103 437.235ZM485.894 438.668C485.909 436.051 485.139 434.61 482.727 432.733C485.761 433.105 487.321 432.625 489.16 430.761C489.149 433.38 489.919 434.822 492.329 436.699C489.296 436.327 487.734 436.805 485.894 438.668Z" fill="#F37A2D"/>
<path d="M390.103 102.235C385.751 99.3152 385.212 98.3049 385.661 93.9143C385.689 93.6442 385.498 93.3681 385.198 93.2442C384.899 93.1203 384.567 93.1807 384.397 93.3932C381.623 96.8221 380.527 97.1586 375.384 96.1549C375.067 96.0932 374.774 96.2233 374.672 96.4703C374.57 96.7172 374.685 97.0173 374.954 97.196C379.307 100.115 379.846 101.125 379.391 105.513C379.362 105.784 379.553 106.06 379.853 106.184C380.153 106.308 380.485 106.247 380.654 106.036C383.436 102.607 384.53 102.272 389.673 103.276C389.989 103.338 390.282 103.208 390.384 102.961C390.486 102.714 390.37 102.415 390.103 102.235L390.103 102.235ZM380.894 103.668C380.909 101.051 380.139 99.6095 377.727 97.7325C380.761 98.1053 382.321 97.6247 384.16 95.7612C384.149 98.3802 384.919 99.8217 387.329 101.699C384.296 101.327 382.734 101.805 380.894 103.668Z" fill="#FEBD23"/>
</svg>
