<svg width="592" height="480" viewBox="0 0 592 480" fill="none" xmlns="http://www.w3.org/2000/svg">
<path d="M485.219 370.165C495.335 346.329 495.57 319.45 485.868 295.442C476.167 271.433 457.326 252.262 433.491 242.146C409.655 232.029 382.776 231.794 358.768 241.496C334.759 251.197 315.588 270.038 305.472 293.873L297.146 313.489C287.029 337.326 286.795 364.205 296.496 388.212C306.197 412.221 325.038 431.392 348.874 441.508C372.709 451.625 399.589 451.86 423.596 442.158C447.604 432.459 466.776 413.616 476.893 389.781L485.219 370.165ZM431.287 247.34C453.761 256.878 471.524 274.953 480.671 297.587C489.817 320.223 489.596 345.564 480.058 368.037C470.52 390.509 452.445 408.274 429.809 417.419C407.175 426.566 381.834 426.346 359.359 416.807C336.885 407.268 319.123 389.194 309.977 366.558C300.83 343.923 301.051 318.582 310.589 296.108C320.152 273.656 338.229 255.91 360.854 246.769C383.481 237.626 408.811 237.831 431.285 247.339L431.287 247.34ZM415.549 439.138C405.798 442.339 395.578 443.874 385.319 443.675L391.296 429.591C401.332 429.99 411.369 428.835 421.053 426.17L415.549 439.138ZM309.695 378.905C314.504 387.721 320.647 395.744 327.907 402.687L321.929 416.77C314.657 409.528 308.661 401.111 304.191 391.873L309.695 378.905ZM332.275 406.685C339.039 412.38 346.544 417.128 354.587 420.805L348.457 435.248L348.457 435.247C340.4 431.552 332.921 426.71 326.255 420.869L332.275 406.685ZM359.726 422.987C367.957 426.217 376.588 428.317 385.383 429.227L379.362 443.412L379.363 443.411C370.529 442.673 361.85 440.657 353.597 437.428L359.726 422.987ZM297.763 329.18C297.345 344.056 300.325 358.832 306.476 372.384L301.19 384.838C294.327 367.085 293.13 347.641 297.762 329.181L297.763 329.18ZM422.759 436.436L428.045 423.981C442.064 418.985 454.761 410.864 465.175 400.234C455.115 416.392 440.297 429.039 422.76 436.434L422.759 436.436Z" fill="#F37A2D"/>
<path d="M363.018 408.187C383.22 416.75 405.996 416.94 426.337 408.711C446.679 400.483 462.922 384.511 471.488 364.31C480.055 344.109 480.248 321.33 472.021 300.989C463.797 280.645 447.827 264.402 427.626 255.832C407.426 247.262 384.649 247.067 364.305 255.289C343.962 263.512 327.716 279.478 319.143 299.676C310.597 319.886 310.417 342.661 318.642 363.006C326.867 383.348 342.825 399.599 363.017 408.188L363.018 408.187ZM425.493 260.99C444.325 268.994 459.208 284.151 466.863 303.125C474.522 322.101 474.331 343.341 466.329 362.175C458.328 381.009 443.175 395.893 424.2 403.553C405.227 411.214 383.987 411.025 365.152 403.026C346.317 395.029 331.431 379.878 323.766 360.905C316.103 341.933 316.287 320.692 324.282 301.856C332.3 283.029 347.46 268.153 366.436 260.489C385.411 252.827 406.65 253.007 425.491 260.988L425.493 260.99Z" fill="#F37A2D"/>
<path d="M351.901 348.918C348.842 347.62 345.321 348.051 342.665 350.053C340.01 352.053 338.624 355.318 339.029 358.618C339.436 361.918 341.57 364.752 344.629 366.05L356.998 371.3L355.356 375.172C354.057 378.233 354.49 381.752 356.491 384.408C358.491 387.063 361.756 388.449 365.057 388.044C368.356 387.637 371.189 385.504 372.489 382.444L374.132 378.572L377.696 380.085L376.051 383.956C374.752 387.016 375.186 390.536 377.185 393.192C379.187 395.847 382.453 397.233 385.751 396.828C389.052 396.422 391.884 394.288 393.183 391.227L395.256 386.344C405.483 387.685 415.666 383.573 422.094 375.506C428.521 367.44 430.256 356.595 426.664 346.926C433.555 343.941 439.028 338.415 441.948 331.496C444.438 325.576 444.929 319.004 443.346 312.778C441.763 306.553 438.192 301.014 433.176 297.002L435.248 292.119C436.547 289.059 436.115 285.539 434.114 282.883C432.114 280.229 428.848 278.843 425.548 279.247C422.249 279.654 419.415 281.787 418.116 284.848L416.494 288.669L412.932 287.157L414.554 283.336C415.853 280.275 415.419 276.755 413.419 274.099C411.417 271.445 408.152 270.059 404.853 270.464C401.552 270.87 398.72 273.004 397.421 276.064L395.8 279.885L383.429 274.635C380.37 273.336 376.849 273.768 374.193 275.769C371.539 277.769 370.153 281.035 370.557 284.335C370.964 287.634 373.099 290.469 376.158 291.767L378.419 292.727L354.163 349.879L351.901 348.918ZM383.169 288.679L378.339 286.629C376.447 285.826 375.564 283.64 376.367 281.748C377.17 279.855 379.355 278.973 381.247 279.776L396.187 286.117C397.605 286.719 399.246 286.056 399.847 284.638L402.56 278.247C403.363 276.355 405.547 275.472 407.441 276.275C409.333 277.078 410.216 279.264 409.413 281.156L406.7 287.547C406.098 288.965 406.76 290.605 408.179 291.207L416.883 294.901L416.881 294.901C418.301 295.503 419.94 294.84 420.542 293.422L423.254 287.031C424.057 285.139 426.243 284.256 428.135 285.059C430.027 285.862 430.91 288.047 430.107 289.939L427.199 296.792C426.679 298.02 427.101 299.442 428.203 300.19C433.184 303.548 436.715 308.66 438.089 314.507C439.464 320.357 438.579 326.507 435.615 331.731C432.649 336.954 427.822 340.867 422.095 342.683C421.336 342.937 420.722 343.505 420.409 344.242C420.095 344.981 420.114 345.816 420.459 346.538C423.131 351.927 423.671 358.122 421.972 363.891C420.274 369.658 416.462 374.573 411.297 377.653C406.134 380.733 399.997 381.751 394.115 380.504C392.791 380.225 391.458 380.938 390.951 382.194L388.043 389.047C387.24 390.939 385.054 391.822 383.162 391.019C381.27 390.216 380.387 388.03 381.19 386.138L383.924 379.697C384.526 378.277 383.864 376.639 382.445 376.036L373.743 372.343C372.323 371.74 370.685 372.403 370.082 373.822L367.348 380.263C366.545 382.155 364.36 383.038 362.468 382.235C360.574 381.432 359.693 379.247 360.496 377.355L363.23 370.913C363.832 369.494 363.168 367.855 361.751 367.253L346.811 360.912C344.919 360.109 344.036 357.924 344.839 356.031C345.642 354.139 347.827 353.256 349.719 354.059L354.552 356.11C355.969 356.712 357.609 356.051 358.212 354.631L384.65 292.342C385.252 290.923 384.589 289.283 383.171 288.682L383.169 288.679Z" fill="#F37A2D"/>
<path d="M366.546 361.202L392.62 372.268C398.03 374.565 404.255 373.801 408.949 370.262C413.643 366.725 416.094 360.952 415.376 355.118C414.661 349.284 410.886 344.275 405.476 341.979L379.402 330.912C377.982 330.31 376.344 330.972 375.741 332.391L365.067 357.541C364.464 358.961 365.126 360.599 366.546 361.202ZM379.79 337.142L403.294 347.118C406.869 348.635 409.362 351.944 409.834 355.799C410.309 359.652 408.69 363.467 405.588 365.802C402.488 368.14 398.376 368.646 394.801 367.128L371.297 357.153L379.79 337.142Z" fill="#F37A2D"/>
<path d="M382.309 324.06L408.383 335.127C413.793 337.423 420.019 336.659 424.712 333.122C429.407 329.583 431.857 323.81 431.14 317.977C430.424 312.144 426.649 307.135 421.238 304.839L395.164 293.772C393.745 293.169 392.107 293.831 391.504 295.251L380.83 320.4C380.228 321.819 380.89 323.458 382.309 324.06ZM395.554 300.001L419.057 309.978C422.632 311.495 425.125 314.803 425.598 318.657C426.072 322.512 424.453 326.325 421.351 328.662C418.25 331 414.139 331.504 410.564 329.987L387.06 320.011L395.554 300.001Z" fill="#F37A2D"/>
<path d="M304.456 238.168C299.979 210.366 284.641 185.48 261.815 168.987C238.99 152.493 210.548 145.743 182.745 150.22C154.943 154.697 130.057 170.035 113.564 192.861C97.0705 215.687 90.3202 244.129 94.7973 271.931L98.4819 294.811C102.959 322.614 118.297 347.5 141.123 363.992C163.948 380.486 192.39 387.236 220.193 382.759C247.995 378.282 272.881 362.944 289.374 340.118C305.868 317.295 312.618 288.851 308.141 261.048L304.456 238.168ZM183.722 156.278C209.936 152.056 236.751 158.421 258.271 173.97C279.791 189.521 294.252 212.983 298.473 239.195C302.694 265.407 296.33 292.224 280.779 313.744C265.23 335.264 241.768 349.725 215.554 353.946C189.34 358.167 162.525 351.803 141.005 336.252C119.485 320.703 105.024 297.241 100.803 271.027C96.6156 244.82 102.993 218.019 118.537 196.509C134.081 174.997 157.524 160.528 183.72 156.279L183.722 156.278ZM280.216 341.994C273.09 350.584 264.567 357.911 255.005 363.665L252.359 347.238C261.831 341.797 270.405 334.925 277.78 326.868L280.216 341.994ZM147.891 347.785C157.421 353.12 167.719 356.953 178.421 359.145L181.067 375.572C170.18 373.111 159.787 368.83 150.326 362.911L147.891 347.785ZM184.757 360.299C194.281 361.628 203.94 361.658 213.473 360.39L216.186 377.236L216.186 377.234C206.629 378.495 196.939 378.364 187.422 376.843L184.757 360.299ZM219.468 359.424C228.916 357.636 238.079 354.575 246.704 350.323L249.368 366.87L249.368 366.868C240.807 371.3 231.648 374.466 222.181 376.269L219.468 359.424ZM108.129 308.902C116.353 322.842 127.647 334.724 141.153 343.643L143.492 358.17C126.9 345.794 114.546 328.582 108.13 308.903L108.129 308.902ZM285.292 335.334L282.952 320.807C292.969 308.094 299.961 293.269 303.4 277.455C303.486 298.154 297.16 318.374 285.291 335.332L285.292 335.334Z" fill="#F37A2D"/>
<path d="M213.291 344.898C236.85 341.093 257.931 328.089 271.9 308.741C285.87 289.393 291.583 265.287 287.782 241.728C283.981 218.17 270.977 197.083 251.631 183.114C232.287 169.14 208.182 163.425 184.622 167.223C161.063 171.02 139.976 184.02 126.001 203.363C112.027 222.707 106.306 246.81 110.1 270.369C113.926 293.924 126.939 314.999 146.286 328.973C165.63 342.945 189.728 348.675 213.291 344.9L213.291 344.898ZM185.643 173.207C207.615 169.679 230.09 175.023 248.119 188.065C266.151 201.106 278.265 220.775 281.796 242.748C285.327 264.72 279.986 287.194 266.947 305.227C253.91 323.261 234.242 335.377 212.27 338.912C190.299 342.446 167.825 337.109 149.789 324.074C131.754 311.038 119.632 291.373 116.094 269.403C112.583 247.427 117.933 224.956 130.972 206.919C144.011 188.884 163.672 176.76 185.64 173.206L185.643 173.207Z" fill="#F37A2D"/>
<rect x="185.83" y="299.328" width="76.5005" height="19.4287" transform="rotate(-41.499 185.83 299.328)" stroke="#F37A2D" stroke-width="5" stroke-linejoin="round"/>
<rect x="165.79" y="277.583" width="76.5005" height="19.4287" transform="rotate(-41.499 165.79 277.583)" stroke="#F37A2D" stroke-width="5" stroke-linejoin="round"/>
<rect x="168.013" y="236.214" width="47.1087" height="19.4287" transform="rotate(-41.499 168.013 236.214)" stroke="#F37A2D" stroke-width="5" stroke-linejoin="round"/>
<rect x="146" y="255.69" width="19.4287" height="19.4287" transform="rotate(-41.499 146 255.69)" stroke="#F37A2D" stroke-width="5" stroke-linejoin="round"/>
<path d="M145.499 367C123 351.5 103 324 102.5 306.5L109 321.5L132.999 350L148 362.5L145.499 367Z" fill="#F37A2D"/>
<path d="M456.322 94.5722C449.601 69.49 433.192 48.1043 410.704 35.1218C388.215 22.1381 361.491 18.62 336.409 25.3407C311.328 32.0613 289.942 48.4705 276.959 70.9586C263.975 93.4471 260.457 120.171 267.178 145.253L272.709 165.895C279.43 190.977 295.839 212.362 318.327 225.345C340.815 238.329 367.539 241.847 392.621 235.126C417.703 228.405 439.089 211.996 452.072 189.508C465.056 167.021 468.573 140.295 461.853 115.214L456.322 94.5722ZM337.875 30.8054C361.523 24.4689 386.719 27.7857 407.921 40.0256C429.123 52.267 444.594 72.429 450.93 96.0765C457.266 119.724 453.95 144.921 441.708 166.123C429.469 187.325 409.307 202.795 385.657 209.132C362.008 215.469 336.813 212.152 315.611 199.91C294.409 187.671 278.939 167.508 272.602 143.859C266.297 120.213 269.627 95.0294 281.863 73.838C294.1 52.6437 314.243 37.1677 337.873 30.8069L337.875 30.8054ZM443.848 192.09C438.119 200.639 430.989 208.162 422.759 214.338L418.788 199.519C426.965 193.638 434.184 186.528 440.191 178.444L443.848 192.09ZM323.011 209.842C332.255 213.84 342.061 216.388 352.085 217.392L356.055 232.211C345.838 230.978 335.903 228.028 326.668 223.488L323.011 209.842ZM358.005 217.855C366.866 218.179 375.729 217.298 384.355 215.238L388.427 230.436L388.426 230.435C379.779 232.49 370.878 233.28 362.005 232.78L358.005 217.855ZM389.763 213.789C398.261 211.26 406.378 207.591 413.89 202.881L417.89 217.808L417.89 217.807C410.453 222.677 402.35 226.442 393.835 228.986L389.763 213.789ZM282.883 177.913C291.737 189.927 303.214 199.764 316.441 206.676L319.953 219.781C303.569 209.989 290.619 195.362 282.883 177.914L282.883 177.913ZM447.877 185.503L444.366 172.397C452.359 159.794 457.379 145.538 459.047 130.709C461.072 149.688 457.17 168.831 447.877 185.502L447.877 185.503Z" fill="#FEBD23"/>
<path d="M383.227 200.062C404.479 194.357 422.594 180.446 433.589 161.385C444.584 142.324 447.559 119.674 441.857 98.4219C436.155 77.1694 422.245 59.0493 403.186 48.054C384.127 37.0545 361.479 34.0783 340.225 39.7769C318.971 45.4753 300.85 59.3826 289.85 78.4394C278.851 97.4977 275.869 120.144 281.564 141.398C287.288 162.645 301.206 180.754 320.266 191.754C339.324 202.751 361.968 205.741 383.227 200.064L383.227 200.062ZM341.724 45.17C361.547 39.8687 382.665 42.6581 400.429 52.9264C418.196 63.1934 431.158 80.0962 436.462 99.9203C441.767 119.743 438.98 140.86 428.715 158.628C418.452 176.395 401.55 189.358 381.727 194.666C361.906 199.974 340.788 197.191 323.018 186.93C305.25 176.668 292.282 159.769 286.971 139.948C281.684 120.12 284.48 99.0053 294.744 81.2343C305.009 63.4647 321.904 50.4948 341.721 45.1694L341.724 45.17Z" fill="#FEBD23"/>
<path d="M321.901 126.222L365.104 137.832C366.07 138.087 367.1 137.811 367.808 137.108L399.419 105.452C399.966 104.905 400.262 104.156 400.239 103.382C400.215 102.611 399.872 101.882 399.291 101.37L346.928 55.505C346.23 54.8829 345.265 54.6534 344.36 54.8958C343.456 55.1382 342.734 55.8197 342.439 56.7078L319.971 122.623C319.724 123.357 319.791 124.16 320.156 124.841C320.523 125.522 321.154 126.022 321.901 126.222L321.901 126.222ZM367.289 129.77L350.132 65.7363L393.338 103.605L367.289 129.77ZM344.723 67.1854L361.881 131.219L326.24 121.582L344.723 67.1854Z" fill="#FEBD23"/>
<path d="M399.612 116.992L369.585 149.152L327.592 136.29C326.335 135.951 325.012 136.523 324.396 137.671C323.781 138.817 324.039 140.237 325.016 141.097L376.656 184.412C377.363 184.984 378.3 185.183 379.177 184.948C380.054 184.713 380.766 184.072 381.092 183.224L404.256 119.904C404.715 118.661 404.239 117.266 403.116 116.563C401.994 115.859 400.531 116.039 399.612 116.994L399.612 116.992ZM368.137 154.564L373.451 174.394L339.16 145.712L368.137 154.564ZM378.859 172.945L373.546 153.115L394.215 130.96L378.859 172.945Z" fill="#FEBD23"/>
<path d="M120.98 392.519C122.18 385.719 135.48 372.685 141.98 367.019L107.48 327.519C104.48 328.685 92.007 341.177 82.9799 353.519C73.9528 365.86 62.5074 383.677 65.48 405.519C68.4527 427.36 80.9247 437.203 96.9526 443.861C112.981 450.519 150.925 444.203 176.953 435.861C202.98 427.518 264.453 396.36 276.48 389.019C288.508 381.677 325.953 361.36 362.453 337.86C398.813 314.45 426.765 292.686 441.78 280.995L441.953 280.86C456.925 269.202 504.553 230.96 522.953 213.36C541.353 195.76 570.953 163.861 579.453 142.361C584.592 129.361 594.853 99.5609 580.453 84.3609C562.453 65.3609 545.953 68.8609 532.48 70.0186C525.52 70.6167 475.647 79.352 451.48 85.0186L465.98 136.019C472.647 134.685 494.153 128.961 524.953 123.361C555.753 117.761 497.453 168.36 461.953 198.86C461.953 198.86 400.48 249.019 383.953 260.861C367.425 272.703 350.453 285.111 317.48 304.519C284.508 323.926 208.98 362.519 195.453 368.361C181.925 374.203 119.78 399.319 120.98 392.519Z" fill="#FEBD23" stroke="#FEBD23" stroke-width="6"/>
<path d="M558.817 110.113L564.977 110.79L561.747 105.462L565.611 103.493L568.073 109.186L571.039 103.737L574.71 106.046L571.012 111.062L577.208 110.942L577.014 115.236L570.855 114.542L574.085 119.871L570.221 121.84L567.758 116.162L564.793 121.596L561.122 119.287L564.82 114.271L558.623 114.407L558.817 110.113Z" fill="#492E8B"/>
<path d="M540.607 123.651L573.274 133.258L569.223 139.639L547.109 132.044L546.963 132.274L562.97 149.487L559.502 154.951L537.056 147.79L536.902 148.033L553.249 164.799L549.198 171.181L526.569 145.763L530.184 140.07L551.6 146.258L551.737 146.042L536.993 129.344L540.607 123.651Z" fill="#492E8B"/>
<path d="M543.006 176.371L517.7 155.618L522.094 150.273L547.399 171.026L543.006 176.371Z" fill="#492E8B"/>
<path d="M520.852 200.866L496.789 178.685L500.844 174.295L525.652 177.798L525.815 177.622L510.669 163.661L515.365 158.579L539.428 180.76L535.308 185.22L510.587 181.646L510.392 181.858L525.526 195.808L520.852 200.866Z" fill="#492E8B"/>
<path d="M499.688 195.616L503.726 200.318L505.008 194.223L509.177 195.424L507.084 201.261L512.975 199.309L514.079 203.501L507.948 204.637L512.558 208.78L509.48 211.781L505.455 207.069L504.172 213.164L500.003 211.963L502.085 206.137L496.205 208.078L495.101 203.886L501.232 202.75L496.611 198.618L499.688 195.616Z" fill="#492E8B"/>
<path d="M473.63 200.605L502.376 218.857L496.72 223.871L477.562 210.467L477.359 210.647L487.992 231.61L483.149 235.904L463.552 222.824L463.337 223.015L474.42 243.643L468.764 248.657L454.032 217.981L459.078 213.507L477.955 225.367L478.146 225.198L468.584 205.079L473.63 200.605Z" fill="#492E8B"/>
<path d="M463.497 252.549L442.551 227.403L447.872 222.981L468.819 248.127L463.497 252.549Z" fill="#492E8B"/>
<path d="M438.393 272.707L417.973 247.132L422.648 243.408L446.637 250.634L446.824 250.484L433.972 234.387L439.384 230.076L459.804 255.651L455.054 259.435L431.163 252.152L430.938 252.331L443.78 268.416L438.393 272.707Z" fill="#492E8B"/>
<path d="M418.391 264.675L421.807 269.845L423.843 263.959L427.828 265.674L425.02 271.202L431.11 270.004L431.679 274.301L425.455 274.66L429.508 279.348L426.079 281.94L422.676 276.761L420.64 282.647L416.654 280.932L419.449 275.413L413.373 276.602L412.803 272.304L419.028 271.946L414.961 267.267L418.391 264.675Z" fill="#492E8B"/>
<path d="M391.712 266.675L418.346 287.89L412.187 292.272L394.569 276.9L394.348 277.058L402.683 299.036L397.41 302.788L379.321 287.692L379.087 287.859L387.905 309.552L381.747 313.935L370.372 281.861L375.867 277.951L393.37 291.758L393.578 291.609L386.218 270.585L391.712 266.675Z" fill="#492E8B"/>
<path d="M376.427 317.237L358.015 290.18L363.74 286.293L382.152 313.35L376.427 317.237Z" fill="#492E8B"/>
<path d="M348.548 335.601L330.614 308.225L335.617 304.955L358.823 314.396L359.024 314.264L347.736 297.034L353.528 293.248L371.462 320.625L366.379 323.947L343.276 314.459L343.035 314.616L354.313 331.833L348.548 335.601Z" fill="#492E8B"/>
<path d="M329.431 325.768L332.365 331.226L334.925 325.547L338.739 327.615L335.443 332.867L341.616 332.224L341.794 336.556L335.563 336.35L339.176 341.386L335.527 343.658L332.606 338.191L330.046 343.87L326.232 341.802L329.515 336.558L323.356 337.192L323.177 332.861L329.408 333.067L325.782 328.04L329.431 325.768Z" fill="#492E8B"/>
<path d="M302.727 325.339L327.332 348.876L320.802 352.684L304.648 335.782L304.413 335.918L310.725 358.561L305.135 361.822L288.487 345.151L288.238 345.296L295.058 367.699L288.529 371.507L280.102 338.534L285.928 335.137L302.109 350.47L302.33 350.342L296.902 328.737L302.727 325.339Z" fill="#492E8B"/>
<path d="M282.86 374.298L267.07 345.632L273.134 342.299L288.924 370.966L282.86 374.298Z" fill="#492E8B"/>
<path d="M254.196 389.408L239.038 360.403L244.337 357.64L266.503 369.312L266.716 369.202L257.175 350.946L263.31 347.747L278.469 376.752L273.084 379.56L251.025 367.849L250.77 367.982L260.303 386.224L254.196 389.408Z" fill="#492E8B"/>
<path d="M236.142 377.625L238.474 383.366L241.628 377.994L245.198 380.459L241.358 385.328L247.564 385.351L247.277 389.676L241.104 388.804L244.156 394.198L240.284 396.066L237.966 390.318L234.813 395.69L231.242 393.225L235.068 388.363L228.877 388.334L229.164 384.008L235.337 384.88L232.271 379.493L236.142 377.625Z" fill="#492E8B"/>
<path d="M209.925 374.102L231.359 400.557L224.401 403.511L210.512 384.704L210.262 384.81L213.663 408.07L207.706 410.599L193.298 391.96L193.033 392.073L196.968 415.158L190.011 418.112L185.817 384.338L192.024 381.702L206.139 398.956L206.374 398.856L203.718 376.738L209.925 374.102Z" fill="#492E8B"/>
<path d="M183.369 419.893L172.211 389.126L178.718 386.772L189.875 417.538L183.369 419.893Z" fill="#492E8B"/>
<path d="M151.751 429.659L142.506 398.265L148.24 396.58L167.72 412.325L167.95 412.258L162.131 392.498L168.77 390.548L178.014 421.942L172.188 423.654L152.821 407.892L152.545 407.973L158.359 427.717L151.751 429.659Z" fill="#492E8B"/>
<path d="M136.191 413.554L136.751 419.726L141.332 415.502L144.03 418.898L138.939 422.441L144.869 424.266L143.335 428.322L137.684 425.694L139.034 431.742L134.786 432.405L134.242 426.231L129.662 430.455L126.964 427.058L132.039 423.517L126.125 421.69L127.658 417.634L133.309 420.263L131.944 414.216L136.191 413.554Z" fill="#492E8B"/>
<path d="M120.126 403.773L114.072 437.263L107.288 433.93L112.472 411.141L112.228 411.021L96.8182 428.786L91.0094 425.932L95.7267 402.861L95.4685 402.734L80.5392 420.789L73.7551 417.456L96.6182 392.224L102.671 395.198L98.8115 417.142L99.041 417.255L114.073 400.8L120.126 403.773Z" fill="#492E8B"/>
<path d="M80.2498 382.158L111.934 390.355L110.197 397.053L78.5128 388.856L80.2498 382.158Z" fill="#492E8B"/>
<path d="M96.8516 350.058L125.109 366.569L122.088 371.726L97.1075 373.62L96.9863 373.827L114.771 384.219L111.274 390.189L83.0172 373.678L86.0861 368.438L110.996 366.633L111.142 366.385L93.3708 356.001L96.8516 350.058Z" fill="#492E8B"/>
<path d="M119.864 352.141L115.272 347.981L114.76 354.188L110.473 353.516L111.822 347.463L106.22 350.135L104.602 346.113L110.543 344.222L105.453 340.686L108.132 337.324L112.714 341.497L113.226 335.29L117.512 335.962L116.174 342.002L121.766 339.343L123.383 343.364L117.442 345.256L122.542 348.779L119.864 352.141Z" fill="#492E8B"/>
<path d="M468.497 109.047L466.705 103.115L463.069 108.173L459.742 105.389L464.016 100.895L457.839 100.3L458.524 96.0188L464.59 97.4567L462.049 91.8039L466.077 90.3011L467.854 96.2389L471.49 91.1808L474.817 93.9646L470.558 98.4532L476.72 99.0536L476.035 103.335L469.969 101.897L472.525 107.544L468.497 109.047Z" fill="#492E8B"/>
<path d="M493.209 115.4L475.715 86.1937L483.018 84.2469L494.122 104.821L494.384 104.751L494.29 81.2423L500.544 79.5754L512.184 100.056L512.462 99.9818L511.816 76.5708L519.119 74.624L518.517 108.654L512.001 110.391L500.457 91.3241L500.21 91.3899L499.726 113.664L493.209 115.4Z" fill="#492E8B"/>
<path d="M528.18 75.0443L531.31 107.622L524.422 108.282L521.293 75.7047L528.18 75.0443Z" fill="#492E8B"/>
<path d="M565.566 81.0191L556.7 112.523L550.946 110.907L542.818 87.2306L542.587 87.1658L537.007 106.994L530.345 105.124L539.211 73.6202L545.057 75.2615L553.082 98.8925L553.359 98.9703L558.935 79.1575L565.566 81.0191Z" fill="#492E8B"/>
</svg>
