<svg width="50" height="38" viewBox="0 0 50 38" fill="none" xmlns="http://www.w3.org/2000/svg">
<path fill-rule="evenodd" clip-rule="evenodd" d="M17.1857 1.00262C17.0512 0.981428 16.9146 0.9782 16.7793 0.993019C14.0881 1.28422 9.99208 2.73702 7.57288 4.04902C7.4131 4.13617 7.27007 4.25102 7.15048 4.38822C6.14568 5.53702 5.23368 7.40902 4.52008 9.18182C3.78408 10.9994 3.17608 12.9194 2.83368 14.3082C1.70088 18.8202 1.08328 24.2378 1.00008 29.377C0.997435 29.6335 1.05904 29.8865 1.17928 30.113C2.13928 31.9466 4.20968 33.6458 6.28328 34.8874C8.37928 36.145 10.8273 37.137 12.7985 37.329C13.0347 37.3516 13.2728 37.3191 13.4944 37.2341C13.7159 37.1492 13.9147 37.0141 14.0753 36.8394C14.5681 36.305 15.4065 35.057 16.0401 34.0874C16.3281 33.6458 16.6001 33.2234 16.8113 32.8874C18.9297 33.2714 21.5857 33.4954 24.9457 33.4954C28.2993 33.4954 30.9553 33.2714 33.0737 32.8874C33.2849 33.2266 33.5537 33.6458 33.8417 34.0842C34.4753 35.057 35.3137 36.305 35.8097 36.8394C35.9702 37.0141 36.1691 37.1492 36.3906 37.2341C36.6121 37.3191 36.8503 37.3516 37.0865 37.329C39.0577 37.137 41.5025 36.145 43.5985 34.8874C45.6721 33.6458 47.7425 31.9466 48.7057 30.113C48.8248 29.8862 48.8853 29.6332 48.8817 29.377C48.8017 24.2378 48.1809 18.817 47.0545 14.305C46.6018 12.5624 46.0364 10.8511 45.3617 9.18182C44.6481 7.40902 43.7361 5.53382 42.7345 4.38822C42.6139 4.25072 42.4698 4.13585 42.3089 4.04902C39.8929 2.73702 35.7969 1.28422 33.1025 0.993019C32.9682 0.978483 32.8327 0.981711 32.6993 1.00262C32.0962 1.11869 31.5305 1.38011 31.0513 1.76422C29.9779 2.62833 29.11 3.72027 28.5105 4.96102C27.3245 4.868 26.1353 4.82209 24.9457 4.82342C23.6593 4.82342 22.4689 4.87142 21.3713 4.95782C20.7714 3.71823 19.9035 2.62741 18.8305 1.76422C18.3522 1.38058 17.7877 1.11918 17.1857 1.00262ZM36.2033 32.081C36.6536 32.7746 37.1156 33.4605 37.5889 34.1386C38.8561 33.8506 40.4721 33.1786 42.0209 32.2506C43.7585 31.2106 45.1377 30.0106 45.8033 28.9962C45.6977 24.177 45.1025 19.1722 44.0753 15.0506C43.6569 13.4453 43.1352 11.8687 42.5137 10.3306C41.8737 8.73702 41.1857 7.38662 40.5873 6.61222C38.5073 5.53382 35.2273 4.39462 33.0897 4.08422C33.0254 4.12323 32.9634 4.16597 32.9041 4.21222C32.6389 4.42082 32.3965 4.65679 32.1809 4.91622C32.0547 5.06644 31.9341 5.22121 31.8193 5.38022C32.7953 5.55942 33.6657 5.77382 34.4369 6.01062C36.6257 6.68262 38.2033 7.61062 38.9745 8.63782C39.2189 8.96372 39.3239 9.37336 39.2662 9.77664C39.2086 10.1799 38.9932 10.5438 38.6673 10.7882C38.5059 10.9092 38.3223 10.9973 38.1269 11.0474C37.9315 11.0974 37.7281 11.1085 37.5285 11.08C37.1252 11.0224 36.7613 10.8069 36.5169 10.481C36.3281 10.2314 35.5057 9.55302 33.5345 8.94502C31.6305 8.36262 28.8305 7.89542 24.9457 7.89542C21.0609 7.89542 18.2577 8.36262 16.3569 8.94822C14.3857 9.55622 13.5633 10.2282 13.3745 10.481C13.2535 10.6424 13.1018 10.7783 12.9283 10.8811C12.7547 10.9839 12.5626 11.0515 12.3629 11.08C11.9596 11.1376 11.55 11.0326 11.2241 10.7882C11.0627 10.6672 10.9268 10.5156 10.824 10.342C10.7212 10.1684 10.6536 9.97633 10.6251 9.77664C10.5675 9.37336 10.6725 8.96372 10.9169 8.63782C11.6881 7.60742 13.2657 6.68582 15.4545 6.01382C16.2225 5.77382 17.0929 5.56262 18.0657 5.38342C17.9507 5.22266 17.8289 5.06679 17.7009 4.91622C17.4862 4.65696 17.2449 4.42099 16.9809 4.21222C16.9205 4.16587 16.8575 4.12313 16.7921 4.08422C14.6577 4.39462 11.3777 5.53382 9.29768 6.61222C8.69608 7.38982 8.01128 8.73702 7.36808 10.3306C6.68648 12.0266 6.12008 13.809 5.80968 15.0506C4.77928 19.1722 4.18408 24.177 4.08168 28.9962C4.74728 30.0138 6.12328 31.2106 7.86088 32.2538C9.41288 33.1818 11.0257 33.8538 12.2961 34.1386C12.7742 33.4638 13.2362 32.7778 13.6817 32.081C11.1697 31.1882 9.82248 29.9626 8.94568 28.6506C8.8339 28.4825 8.75632 28.2941 8.71738 28.096C8.67843 27.8979 8.67888 27.6941 8.7187 27.4962C8.75851 27.2983 8.83692 27.1102 8.94944 26.9426C9.06196 26.775 9.20639 26.6312 9.37448 26.5194C9.54257 26.4076 9.73104 26.3301 9.92911 26.2911C10.1272 26.2522 10.331 26.2526 10.5289 26.2924C10.7268 26.3323 10.9149 26.4107 11.0825 26.5232C11.2501 26.6357 11.3939 26.7801 11.5057 26.9482C12.3377 28.2026 14.5265 30.4234 24.9457 30.4234C35.3681 30.4234 37.5537 28.2026 38.3857 26.9482C38.6114 26.6087 38.9628 26.3728 39.3625 26.2924C39.7622 26.212 40.1774 26.2937 40.5169 26.5194C40.8564 26.7452 41.0923 27.0965 41.1727 27.4962C41.2531 27.8959 41.1714 28.3111 40.9457 28.6506C40.0689 29.9626 38.7185 31.1914 36.2033 32.081ZM14.0017 17.5978C14.7825 16.7594 15.8417 16.2858 16.9457 16.2794C18.0497 16.2858 19.1089 16.7594 19.8897 17.5978C20.6673 18.4394 21.1057 19.5754 21.1057 20.7594C21.1057 21.9434 20.6673 23.0794 19.8897 23.921C19.1089 24.7594 18.0497 25.233 16.9457 25.2394C16.3907 25.2336 15.843 25.1135 15.3364 24.8867C14.8299 24.6598 14.3756 24.3311 14.0017 23.921C13.2132 23.0575 12.7791 21.9287 12.7857 20.7594C12.7857 19.5754 13.2241 18.4394 14.0017 17.5978ZM32.9457 16.2794C31.8417 16.2858 30.7825 16.7594 30.0017 17.5978C29.2241 18.4394 28.7857 19.5754 28.7857 20.7594C28.7857 21.9434 29.2241 23.0794 30.0017 23.921C30.7825 24.7594 31.8417 25.233 32.9457 25.2394C34.0497 25.233 35.1089 24.7594 35.8897 23.921C36.6673 23.0794 37.1057 21.9434 37.1057 20.7594C37.1057 19.5754 36.6673 18.4394 35.8897 17.5978C35.5158 17.1877 35.0614 16.859 34.5549 16.6322C34.0484 16.4054 33.5006 16.2853 32.9457 16.2794Z" fill="#F37A2D" stroke="#F37A2D" stroke-width="0.5"/>
</svg>
