<svg width="42" height="43" viewBox="0 0 42 43" fill="none" xmlns="http://www.w3.org/2000/svg">
<path fill-rule="evenodd" clip-rule="evenodd" d="M21 0.159912C15.2977 0.159912 14.5821 0.184143 12.3415 0.285912C10.1058 0.387681 8.57931 0.743066 7.24338 1.2616C5.84238 1.78926 4.57335 2.61618 3.52477 3.68468C2.45607 4.73373 1.62914 6.00334 1.10169 7.40491C0.583154 8.73922 0.229385 10.2658 0.126 12.5014C0.0242309 14.742 0 15.4576 0 21.1599C0 26.8622 0.0242309 27.5778 0.126 29.8184C0.227769 32.0541 0.583154 33.5806 1.10169 34.9149C1.63962 36.2961 2.35685 37.4672 3.52477 38.6351C4.57335 39.7036 5.84238 40.5306 7.24338 41.0582C8.57931 41.5751 10.1058 41.9305 12.3415 42.0339C14.5821 42.1357 15.2977 42.1599 21 42.1599C26.7023 42.1599 27.4179 42.1357 29.6585 42.0339C31.8942 41.9321 33.4207 41.5768 34.755 41.0582C36.1566 40.5308 37.4262 39.7039 38.4752 38.6351C39.5439 37.5861 40.3709 36.3165 40.8983 34.9149C41.4152 33.5806 41.7706 32.0541 41.874 29.8184C41.9758 27.5778 42 26.8622 42 21.1599C42 15.4576 41.9758 14.742 41.874 12.5014C41.7722 10.2658 41.4168 8.73922 40.8967 7.40491C40.3697 6.00348 39.5433 4.73389 38.4752 3.68468C37.4262 2.61594 36.1566 1.78901 34.755 1.2616C33.4207 0.744682 31.8942 0.389297 29.6585 0.285912C27.4179 0.184143 26.7023 0.159912 21 0.159912ZM21 3.94314C26.607 3.94314 27.2709 3.96576 29.4856 4.06591C31.5323 4.1596 32.6453 4.50207 33.3852 4.7896C34.3657 5.17084 35.0652 5.62476 35.8002 6.35976C36.5352 7.09476 36.9891 7.79422 37.3703 8.77476C37.6578 9.5146 38.0003 10.626 38.094 12.6743C38.1942 14.8874 38.2168 15.5529 38.2168 21.1599C38.2168 26.7669 38.1942 27.4308 38.094 29.6455C38.0003 31.6938 37.6578 32.8052 37.3703 33.5451C37.0339 34.4573 36.4974 35.2825 35.8002 35.9601C35.1226 36.6573 34.2974 37.1939 33.3852 37.5302C32.6453 37.8178 31.5323 38.1602 29.4856 38.2539C27.2725 38.3541 26.607 38.3767 21 38.3767C15.393 38.3767 14.7275 38.3541 12.5144 38.2539C10.4661 38.1602 9.35469 37.8178 8.61485 37.5302C7.70262 37.1939 6.8774 36.6573 6.19985 35.9601C5.50269 35.2824 4.96618 34.4572 4.62969 33.5451C4.34215 32.8052 3.99969 31.6938 3.906 29.6455C3.80585 27.4325 3.78323 26.7669 3.78323 21.1599C3.78323 15.5529 3.80585 14.889 3.906 12.6743C3.99969 10.626 4.34215 9.5146 4.62969 8.77476C5.01092 7.79422 5.46485 7.09476 6.19985 6.35976C6.87743 5.66252 7.70265 5.12599 8.61485 4.7896C9.35469 4.50207 10.4661 4.1596 12.5144 4.06591C14.7275 3.96576 15.393 3.94314 21 3.94314Z" fill="#F37A2D"/>
<path fill-rule="evenodd" clip-rule="evenodd" d="M21.0001 9.85228C18.0011 9.85228 15.1249 11.0436 13.0043 13.1642C10.8837 15.2848 9.69238 18.161 9.69238 21.16C9.69238 24.159 10.8837 27.0351 13.0043 29.1557C15.1249 31.2763 18.0011 32.4677 21.0001 32.4677C23.9991 32.4677 26.8752 31.2763 28.9958 29.1557C31.1164 27.0351 32.3078 24.159 32.3078 21.16C32.3078 18.161 31.1164 15.2848 28.9958 13.1642C26.8752 11.0436 23.9991 9.85228 21.0001 9.85228ZM21.0001 28.4292C19.0722 28.4292 17.2232 27.6633 15.86 26.3001C14.4967 24.9368 13.7308 23.0879 13.7308 21.16C13.7308 19.232 14.4967 17.3831 15.86 16.0198C17.2232 14.6566 19.0722 13.8907 21.0001 13.8907C22.928 13.8907 24.777 14.6566 26.1402 16.0198C27.5034 17.3831 28.2693 19.232 28.2693 21.16C28.2693 23.0879 27.5034 24.9368 26.1402 26.3001C24.777 27.6633 22.928 28.4292 21.0001 28.4292ZM35.0539 10.0138C35.0539 10.3532 34.9871 10.6893 34.8572 11.0029C34.7273 11.3165 34.5369 11.6014 34.2969 11.8414C34.0569 12.0814 33.772 12.2718 33.4584 12.4017C33.1448 12.5316 32.8087 12.5984 32.4693 12.5984C32.1299 12.5984 31.7938 12.5316 31.4802 12.4017C31.1666 12.2718 30.8817 12.0814 30.6417 11.8414C30.4017 11.6014 30.2113 11.3165 30.0814 11.0029C29.9515 10.6893 29.8847 10.3532 29.8847 10.0138C29.8847 9.32833 30.157 8.67093 30.6417 8.18622C31.1264 7.70151 31.7838 7.4292 32.4693 7.4292C33.1548 7.4292 33.8122 7.70151 34.2969 8.18622C34.7816 8.67093 35.0539 9.32833 35.0539 10.0138Z" fill="#F37A2D"/>
</svg>
