<svg width="480" height="685" viewBox="0 0 480 685" fill="none" xmlns="http://www.w3.org/2000/svg">
<rect x="16.666" y="35.1885" width="436.667" height="624.007" fill="#C3B3F9"/>
<rect y="70.377" width="26.6667" height="588.818" fill="#492E8B"/>
<rect x="453.334" y="35.1885" width="26.6667" height="588.818" fill="#492E8B"/>
<rect x="31.666" y="35.1885" width="35.1884" height="448.333" transform="rotate(-90 31.666 35.1885)" fill="#492E8B"/>
<rect y="685" width="35.1884" height="450" transform="rotate(-90 0 685)" fill="#492E8B"/>
<rect x="16.666" y="35.1885" width="26.6667" height="35.1884" fill="#492E8B"/>
<rect x="438.334" y="624.007" width="26.6667" height="35.1884" fill="#492E8B"/>
<rect x="63" y="57" width="117" height="46" fill="#492E8B"/>
<path d="M85.1988 75.4871H81.2564V78.1153H85.1988V75.4871ZM81.2564 86H76V74.173H77.3141V72.8589H89.1411V74.173H90.4552V86H85.1988V80.7436H81.2564V86ZM97.0155 75.4871V83.3718H100.958V80.7436H106.214V84.6859H104.9V86H93.0732V84.6859H91.7591V74.173H93.0732V72.8589H104.9V74.173H106.214V78.1153H100.958V75.4871H97.0155ZM107.518 72.8589H120.659V75.4871H116.717V86H111.46V75.4871H107.518V72.8589ZM121.968 72.8589H135.109V75.4871H131.167V83.3718H135.109V86H121.968V83.3718H125.911V75.4871H121.968V72.8589ZM145.617 72.8589H150.873V80.7436H149.559V82.0577H148.245V83.3718H146.931V84.6859H145.617V86H136.418V72.8589H141.675V82.0577H142.989V80.7436H144.303V79.4294H145.617V72.8589ZM157.434 78.1153H161.376V80.7436H157.434V83.3718H166.633V86H153.491V84.6859H152.177V74.173H153.491V72.8589H166.633V75.4871H157.434V78.1153Z" fill="#C3B3F9"/>
</svg>
