<svg width="1179" height="250" viewBox="0 0 1179 250" fill="none" xmlns="http://www.w3.org/2000/svg">
<mask id="mask0_24_1473" style="mask-type:alpha" maskUnits="userSpaceOnUse" x="0" y="0" width="1179" height="250">
<rect width="1179" height="250" fill="#D9D9D9"/>
</mask>
<g mask="url(#mask0_24_1473)">
<path d="M76.9551 86.4798H45.2601V107.61H76.9551V86.4798ZM45.2601 171H3V65.3498H108.65V75.9148H119.215V118.175H108.65V128.74H45.2601V171ZM203.653 128.74H140.263V118.175H129.698V75.9148H140.263V65.3498H245.913V86.4798H171.958V107.61H235.348V118.175H245.913V160.435H235.348V171H129.698V149.87H203.653V128.74ZM383.176 107.61V128.74H351.481V171H309.22V75.9148H319.786V65.3498H425.436V86.4798H351.481V107.61H383.176ZM435.918 65.3498H541.568V86.4798H509.873V149.87H541.568V171H435.918V149.87H467.613V86.4798H435.918V65.3498ZM626.047 97.0449V65.3498H668.307V171H626.047V139.305H615.482V128.74H604.917V118.175H594.352V171H552.092V65.3498H594.352V75.9148H604.917V86.4798H615.482V97.0449H626.047ZM752.745 86.4798H721.05V107.61H752.745V86.4798ZM721.05 171H678.79V75.9148H689.355V65.3498H784.44V75.9148H795.005V171H752.745V128.74H721.05V171ZM879.443 97.0449V65.3498H921.703V171H879.443V139.305H868.878V128.74H858.313V118.175H847.748V171H805.488V65.3498H847.748V75.9148H858.313V86.4798H868.878V97.0449H879.443ZM974.445 86.4798V149.87H1006.14V128.74H1048.4V160.435H1037.84V171H942.75V160.435H932.185V75.9148H942.75V65.3498H1037.84V75.9148H1048.4V107.61H1006.14V86.4798H974.445ZM1101.14 107.61H1132.84V128.74H1101.14V149.87H1175.1V171H1069.45V160.435H1058.88V75.9148H1069.45V65.3498H1175.1V86.4798H1101.14V107.61Z" fill="#FEBD23"/>
<path d="M76.9551 86.4798H80.5858V82.8492H76.9551V86.4798ZM45.2601 86.4798V82.8492H41.6295V86.4798H45.2601ZM45.2601 107.61H41.6295V111.241H45.2601V107.61ZM76.9551 107.61V111.241H80.5858V107.61H76.9551ZM45.2601 171V174.631H48.8907V171H45.2601ZM3 171H-0.630631V174.631H3V171ZM3 65.3498V61.7192H-0.630631V65.3498H3ZM108.65 65.3498H112.281V61.7192H108.65V65.3498ZM108.65 75.9148H105.02V79.5454H108.65V75.9148ZM119.215 75.9148H122.846V72.2842H119.215V75.9148ZM119.215 118.175V121.806H122.846V118.175H119.215ZM108.65 118.175V114.544H105.02V118.175H108.65ZM108.65 128.74V132.371H112.281V128.74H108.65ZM45.2601 128.74V125.109H41.6295V128.74H45.2601ZM76.9551 82.8492H45.2601V90.1105H76.9551V82.8492ZM41.6295 86.4798V107.61H48.8907V86.4798H41.6295ZM45.2601 111.241H76.9551V103.979H45.2601V111.241ZM80.5858 107.61V86.4798H73.3245V107.61H80.5858ZM45.2601 167.369H3V174.631H45.2601V167.369ZM6.63063 171V65.3498H-0.630631V171H6.63063ZM3 68.9804H108.65V61.7192H3V68.9804ZM105.02 65.3498V75.9148H112.281V65.3498H105.02ZM108.65 79.5454H119.215V72.2842H108.65V79.5454ZM115.585 75.9148V118.175H122.846V75.9148H115.585ZM119.215 114.544H108.65V121.806H119.215V114.544ZM105.02 118.175V128.74H112.281V118.175H105.02ZM108.65 125.109H45.2601V132.371H108.65V125.109ZM41.6295 128.74V171H48.8907V128.74H41.6295ZM203.653 128.74H207.283V125.109H203.653V128.74ZM140.263 128.74H136.632V132.371H140.263V128.74ZM140.263 118.175H143.893V114.544H140.263V118.175ZM129.698 118.175H126.067V121.806H129.698V118.175ZM129.698 75.9148V72.2842H126.067V75.9148H129.698ZM140.263 75.9148V79.5454H143.893V75.9148H140.263ZM140.263 65.3498V61.7192H136.632V65.3498H140.263ZM245.913 65.3498H249.544V61.7192H245.913V65.3498ZM245.913 86.4798V90.1105H249.544V86.4798H245.913ZM171.958 86.4798V82.8492H168.327V86.4798H171.958ZM171.958 107.61H168.327V111.241H171.958V107.61ZM235.348 107.61H238.979V103.979H235.348V107.61ZM235.348 118.175H231.717V121.806H235.348V118.175ZM245.913 118.175H249.544V114.544H245.913V118.175ZM245.913 160.435V164.066H249.544V160.435H245.913ZM235.348 160.435V156.804H231.717V160.435H235.348ZM235.348 171V174.631H238.979V171H235.348ZM129.698 171H126.067V174.631H129.698V171ZM129.698 149.87V146.239H126.067V149.87H129.698ZM203.653 149.87V153.501H207.283V149.87H203.653ZM203.653 125.109H140.263V132.371H203.653V125.109ZM143.893 128.74V118.175H136.632V128.74H143.893ZM140.263 114.544H129.698V121.806H140.263V114.544ZM133.328 118.175V75.9148H126.067V118.175H133.328ZM129.698 79.5454H140.263V72.2842H129.698V79.5454ZM143.893 75.9148V65.3498H136.632V75.9148H143.893ZM140.263 68.9804H245.913V61.7192H140.263V68.9804ZM242.282 65.3498V86.4798H249.544V65.3498H242.282ZM245.913 82.8492H171.958V90.1105H245.913V82.8492ZM168.327 86.4798V107.61H175.588V86.4798H168.327ZM171.958 111.241H235.348V103.979H171.958V111.241ZM231.717 107.61V118.175H238.979V107.61H231.717ZM235.348 121.806H245.913V114.544H235.348V121.806ZM242.282 118.175V160.435H249.544V118.175H242.282ZM245.913 156.804H235.348V164.066H245.913V156.804ZM231.717 160.435V171H238.979V160.435H231.717ZM235.348 167.369H129.698V174.631H235.348V167.369ZM133.328 171V149.87H126.067V171H133.328ZM129.698 153.501H203.653V146.239H129.698V153.501ZM207.283 149.87V128.74H200.022V149.87H207.283ZM383.176 107.61H386.806V103.979H383.176V107.61ZM383.176 128.74V132.371H386.806V128.74H383.176ZM351.481 128.74V125.109H347.85V128.74H351.481ZM351.481 171V174.631H355.111V171H351.481ZM309.22 171H305.59V174.631H309.22V171ZM309.22 75.9148V72.2842H305.59V75.9148H309.22ZM319.786 75.9148V79.5454H323.416V75.9148H319.786ZM319.786 65.3498V61.7192H316.155V65.3498H319.786ZM425.436 65.3498H429.066V61.7192H425.436V65.3498ZM425.436 86.4798V90.1105H429.066V86.4798H425.436ZM351.481 86.4798V82.8492H347.85V86.4798H351.481ZM351.481 107.61H347.85V111.241H351.481V107.61ZM379.545 107.61V128.74H386.806V107.61H379.545ZM383.176 125.109H351.481V132.371H383.176V125.109ZM347.85 128.74V171H355.111V128.74H347.85ZM351.481 167.369H309.22V174.631H351.481V167.369ZM312.851 171V75.9148H305.59V171H312.851ZM309.22 79.5454H319.786V72.2842H309.22V79.5454ZM323.416 75.9148V65.3498H316.155V75.9148H323.416ZM319.786 68.9804H425.436V61.7192H319.786V68.9804ZM421.805 65.3498V86.4798H429.066V65.3498H421.805ZM425.436 82.8492H351.481V90.1105H425.436V82.8492ZM347.85 86.4798V107.61H355.111V86.4798H347.85ZM351.481 111.241H383.176V103.979H351.481V111.241ZM435.918 65.3498V61.7192H432.288V65.3498H435.918ZM541.568 65.3498H545.199V61.7192H541.568V65.3498ZM541.568 86.4798V90.1105H545.199V86.4798H541.568ZM509.873 86.4798V82.8492H506.243V86.4798H509.873ZM509.873 149.87H506.243V153.501H509.873V149.87ZM541.568 149.87H545.199V146.239H541.568V149.87ZM541.568 171V174.631H545.199V171H541.568ZM435.918 171H432.288V174.631H435.918V171ZM435.918 149.87V146.239H432.288V149.87H435.918ZM467.613 149.87V153.501H471.244V149.87H467.613ZM467.613 86.4798H471.244V82.8492H467.613V86.4798ZM435.918 86.4798H432.288V90.1105H435.918V86.4798ZM435.918 68.9804H541.568V61.7192H435.918V68.9804ZM537.938 65.3498V86.4798H545.199V65.3498H537.938ZM541.568 82.8492H509.873V90.1105H541.568V82.8492ZM506.243 86.4798V149.87H513.504V86.4798H506.243ZM509.873 153.501H541.568V146.239H509.873V153.501ZM537.938 149.87V171H545.199V149.87H537.938ZM541.568 167.369H435.918V174.631H541.568V167.369ZM439.549 171V149.87H432.288V171H439.549ZM435.918 153.501H467.613V146.239H435.918V153.501ZM471.244 149.87V86.4798H463.983V149.87H471.244ZM467.613 82.8492H435.918V90.1105H467.613V82.8492ZM439.549 86.4798V65.3498H432.288V86.4798H439.549ZM626.047 97.0449V100.675H629.678V97.0449H626.047ZM626.047 65.3498V61.7192H622.417V65.3498H626.047ZM668.307 65.3498H671.938V61.7192H668.307V65.3498ZM668.307 171V174.631H671.938V171H668.307ZM626.047 171H622.417V174.631H626.047V171ZM626.047 139.305H629.678V135.674H626.047V139.305ZM615.482 139.305H611.852V142.936H615.482V139.305ZM615.482 128.74H619.113V125.109H615.482V128.74ZM604.917 128.74H601.287V132.371H604.917V128.74ZM604.917 118.175H608.548V114.544H604.917V118.175ZM594.352 118.175V114.544H590.722V118.175H594.352ZM594.352 171V174.631H597.983V171H594.352ZM552.092 171H548.462V174.631H552.092V171ZM552.092 65.3498V61.7192H548.462V65.3498H552.092ZM594.352 65.3498H597.983V61.7192H594.352V65.3498ZM594.352 75.9148H590.722V79.5454H594.352V75.9148ZM604.917 75.9148H608.548V72.2842H604.917V75.9148ZM604.917 86.4798H601.287V90.1105H604.917V86.4798ZM615.482 86.4798H619.113V82.8492H615.482V86.4798ZM615.482 97.0449H611.852V100.675H615.482V97.0449ZM629.678 97.0449V65.3498H622.417V97.0449H629.678ZM626.047 68.9804H668.307V61.7192H626.047V68.9804ZM664.677 65.3498V171H671.938V65.3498H664.677ZM668.307 167.369H626.047V174.631H668.307V167.369ZM629.678 171V139.305H622.417V171H629.678ZM626.047 135.674H615.482V142.936H626.047V135.674ZM619.113 139.305V128.74H611.852V139.305H619.113ZM615.482 125.109H604.917V132.371H615.482V125.109ZM608.548 128.74V118.175H601.287V128.74H608.548ZM604.917 114.544H594.352V121.806H604.917V114.544ZM590.722 118.175V171H597.983V118.175H590.722ZM594.352 167.369H552.092V174.631H594.352V167.369ZM555.723 171V65.3498H548.462V171H555.723ZM552.092 68.9804H594.352V61.7192H552.092V68.9804ZM590.722 65.3498V75.9148H597.983V65.3498H590.722ZM594.352 79.5454H604.917V72.2842H594.352V79.5454ZM601.287 75.9148V86.4798H608.548V75.9148H601.287ZM604.917 90.1105H615.482V82.8492H604.917V90.1105ZM611.852 86.4798V97.0449H619.113V86.4798H611.852ZM615.482 100.675H626.047V93.4142H615.482V100.675ZM752.745 86.4798H756.376V82.8492H752.745V86.4798ZM721.05 86.4798V82.8492H717.419V86.4798H721.05ZM721.05 107.61H717.419V111.241H721.05V107.61ZM752.745 107.61V111.241H756.376V107.61H752.745ZM721.05 171V174.631H724.681V171H721.05ZM678.79 171H675.159V174.631H678.79V171ZM678.79 75.9148V72.2842H675.159V75.9148H678.79ZM689.355 75.9148V79.5454H692.986V75.9148H689.355ZM689.355 65.3498V61.7192H685.724V65.3498H689.355ZM784.44 65.3498H788.071V61.7192H784.44V65.3498ZM784.44 75.9148H780.809V79.5454H784.44V75.9148ZM795.005 75.9148H798.636V72.2842H795.005V75.9148ZM795.005 171V174.631H798.636V171H795.005ZM752.745 171H749.114V174.631H752.745V171ZM752.745 128.74H756.376V125.109H752.745V128.74ZM721.05 128.74V125.109H717.419V128.74H721.05ZM752.745 82.8492H721.05V90.1105H752.745V82.8492ZM717.419 86.4798V107.61H724.681V86.4798H717.419ZM721.05 111.241H752.745V103.979H721.05V111.241ZM756.376 107.61V86.4798H749.114V107.61H756.376ZM721.05 167.369H678.79V174.631H721.05V167.369ZM682.42 171V75.9148H675.159V171H682.42ZM678.79 79.5454H689.355V72.2842H678.79V79.5454ZM692.986 75.9148V65.3498H685.724V75.9148H692.986ZM689.355 68.9804H784.44V61.7192H689.355V68.9804ZM780.809 65.3498V75.9148H788.071V65.3498H780.809ZM784.44 79.5454H795.005V72.2842H784.44V79.5454ZM791.374 75.9148V171H798.636V75.9148H791.374ZM795.005 167.369H752.745V174.631H795.005V167.369ZM756.376 171V128.74H749.114V171H756.376ZM752.745 125.109H721.05V132.371H752.745V125.109ZM717.419 128.74V171H724.681V128.74H717.419ZM879.443 97.0449V100.675H883.073V97.0449H879.443ZM879.443 65.3498V61.7192H875.812V65.3498H879.443ZM921.703 65.3498H925.333V61.7192H921.703V65.3498ZM921.703 171V174.631H925.333V171H921.703ZM879.443 171H875.812V174.631H879.443V171ZM879.443 139.305H883.073V135.674H879.443V139.305ZM868.878 139.305H865.247V142.936H868.878V139.305ZM868.878 128.74H872.508V125.109H868.878V128.74ZM858.313 128.74H854.682V132.371H858.313V128.74ZM858.313 118.175H861.943V114.544H858.313V118.175ZM847.748 118.175V114.544H844.117V118.175H847.748ZM847.748 171V174.631H851.378V171H847.748ZM805.488 171H801.857V174.631H805.488V171ZM805.488 65.3498V61.7192H801.857V65.3498H805.488ZM847.748 65.3498H851.378V61.7192H847.748V65.3498ZM847.748 75.9148H844.117V79.5454H847.748V75.9148ZM858.313 75.9148H861.943V72.2842H858.313V75.9148ZM858.313 86.4798H854.682V90.1105H858.313V86.4798ZM868.878 86.4798H872.508V82.8492H868.878V86.4798ZM868.878 97.0449H865.247V100.675H868.878V97.0449ZM883.073 97.0449V65.3498H875.812V97.0449H883.073ZM879.443 68.9804H921.703V61.7192H879.443V68.9804ZM918.072 65.3498V171H925.333V65.3498H918.072ZM921.703 167.369H879.443V174.631H921.703V167.369ZM883.073 171V139.305H875.812V171H883.073ZM879.443 135.674H868.878V142.936H879.443V135.674ZM872.508 139.305V128.74H865.247V139.305H872.508ZM868.878 125.109H858.313V132.371H868.878V125.109ZM861.943 128.74V118.175H854.682V128.74H861.943ZM858.313 114.544H847.748V121.806H858.313V114.544ZM844.117 118.175V171H851.378V118.175H844.117ZM847.748 167.369H805.488V174.631H847.748V167.369ZM809.118 171V65.3498H801.857V171H809.118ZM805.488 68.9804H847.748V61.7192H805.488V68.9804ZM844.117 65.3498V75.9148H851.378V65.3498H844.117ZM847.748 79.5454H858.313V72.2842H847.748V79.5454ZM854.682 75.9148V86.4798H861.943V75.9148H854.682ZM858.313 90.1105H868.878V82.8492H858.313V90.1105ZM865.247 86.4798V97.0449H872.508V86.4798H865.247ZM868.878 100.675H879.443V93.4142H868.878V100.675ZM974.445 86.4798V82.8492H970.815V86.4798H974.445ZM974.445 149.87H970.815V153.501H974.445V149.87ZM1006.14 149.87V153.501H1009.77V149.87H1006.14ZM1006.14 128.74V125.109H1002.51V128.74H1006.14ZM1048.4 128.74H1052.03V125.109H1048.4V128.74ZM1048.4 160.435V164.066H1052.03V160.435H1048.4ZM1037.84 160.435V156.804H1034.2V160.435H1037.84ZM1037.84 171V174.631H1041.47V171H1037.84ZM942.75 171H939.12V174.631H942.75V171ZM942.75 160.435H946.381V156.804H942.75V160.435ZM932.185 160.435H928.555V164.066H932.185V160.435ZM932.185 75.9148V72.2842H928.555V75.9148H932.185ZM942.75 75.9148V79.5454H946.381V75.9148H942.75ZM942.75 65.3498V61.7192H939.12V65.3498H942.75ZM1037.84 65.3498H1041.47V61.7192H1037.84V65.3498ZM1037.84 75.9148H1034.2V79.5454H1037.84V75.9148ZM1048.4 75.9148H1052.03V72.2842H1048.4V75.9148ZM1048.4 107.61V111.241H1052.03V107.61H1048.4ZM1006.14 107.61H1002.51V111.241H1006.14V107.61ZM1006.14 86.4798H1009.77V82.8492H1006.14V86.4798ZM970.815 86.4798V149.87H978.076V86.4798H970.815ZM974.445 153.501H1006.14V146.239H974.445V153.501ZM1009.77 149.87V128.74H1002.51V149.87H1009.77ZM1006.14 132.371H1048.4V125.109H1006.14V132.371ZM1044.77 128.74V160.435H1052.03V128.74H1044.77ZM1048.4 156.804H1037.84V164.066H1048.4V156.804ZM1034.2 160.435V171H1041.47V160.435H1034.2ZM1037.84 167.369H942.75V174.631H1037.84V167.369ZM946.381 171V160.435H939.12V171H946.381ZM942.75 156.804H932.185V164.066H942.75V156.804ZM935.816 160.435V75.9148H928.555V160.435H935.816ZM932.185 79.5454H942.75V72.2842H932.185V79.5454ZM946.381 75.9148V65.3498H939.12V75.9148H946.381ZM942.75 68.9804H1037.84V61.7192H942.75V68.9804ZM1034.2 65.3498V75.9148H1041.47V65.3498H1034.2ZM1037.84 79.5454H1048.4V72.2842H1037.84V79.5454ZM1044.77 75.9148V107.61H1052.03V75.9148H1044.77ZM1048.4 103.979H1006.14V111.241H1048.4V103.979ZM1009.77 107.61V86.4798H1002.51V107.61H1009.77ZM1006.14 82.8492H974.445V90.1105H1006.14V82.8492ZM1101.14 107.61H1097.51V111.241H1101.14V107.61ZM1132.84 107.61H1136.47V103.979H1132.84V107.61ZM1132.84 128.74V132.371H1136.47V128.74H1132.84ZM1101.14 128.74V125.109H1097.51V128.74H1101.14ZM1101.14 149.87H1097.51V153.501H1101.14V149.87ZM1175.1 149.87H1178.73V146.239H1175.1V149.87ZM1175.1 171V174.631H1178.73V171H1175.1ZM1069.45 171H1065.82V174.631H1069.45V171ZM1069.45 160.435H1073.08V156.804H1069.45V160.435ZM1058.88 160.435H1055.25V164.066H1058.88V160.435ZM1058.88 75.9148V72.2842H1055.25V75.9148H1058.88ZM1069.45 75.9148V79.5454H1073.08V75.9148H1069.45ZM1069.45 65.3498V61.7192H1065.82V65.3498H1069.45ZM1175.1 65.3498H1178.73V61.7192H1175.1V65.3498ZM1175.1 86.4798V90.1105H1178.73V86.4798H1175.1ZM1101.14 86.4798V82.8492H1097.51V86.4798H1101.14ZM1101.14 111.241H1132.84V103.979H1101.14V111.241ZM1129.21 107.61V128.74H1136.47V107.61H1129.21ZM1132.84 125.109H1101.14V132.371H1132.84V125.109ZM1097.51 128.74V149.87H1104.77V128.74H1097.51ZM1101.14 153.501H1175.1V146.239H1101.14V153.501ZM1171.47 149.87V171H1178.73V149.87H1171.47ZM1175.1 167.369H1069.45V174.631H1175.1V167.369ZM1073.08 171V160.435H1065.82V171H1073.08ZM1069.45 156.804H1058.88V164.066H1069.45V156.804ZM1062.51 160.435V75.9148H1055.25V160.435H1062.51ZM1058.88 79.5454H1069.45V72.2842H1058.88V79.5454ZM1073.08 75.9148V65.3498H1065.82V75.9148H1073.08ZM1069.45 68.9804H1175.1V61.7192H1069.45V68.9804ZM1171.47 65.3498V86.4798H1178.73V65.3498H1171.47ZM1175.1 82.8492H1101.14V90.1105H1175.1V82.8492ZM1097.51 86.4798V107.61H1104.77V86.4798H1097.51Z" fill="#1F0D35"/>
<path d="M76.9551 -51.5202H45.2601V-30.3901H76.9551V-51.5202ZM45.2601 33H3V-72.6502H108.65V-62.0852H119.215V-19.8251H108.65V-9.26008H45.2601V33ZM203.653 -9.26008H140.263V-19.8251H129.698V-62.0852H140.263V-72.6502H245.913V-51.5202H171.958V-30.3901H235.348V-19.8251H245.913V22.435H235.348V33H129.698V11.87H203.653V-9.26008ZM383.176 -30.3901V-9.26008H351.481V33H309.22V-62.0852H319.786V-72.6502H425.436V-51.5202H351.481V-30.3901H383.176ZM435.918 -72.6502H541.568V-51.5202H509.873V11.87H541.568V33H435.918V11.87H467.613V-51.5202H435.918V-72.6502ZM626.047 -40.9551V-72.6502H668.307V33H626.047V1.30494H615.482V-9.26008H604.917V-19.8251H594.352V33H552.092V-72.6502H594.352V-62.0852H604.917V-51.5202H615.482V-40.9551H626.047ZM752.745 -51.5202H721.05V-30.3901H752.745V-51.5202ZM721.05 33H678.79V-62.0852H689.355V-72.6502H784.44V-62.0852H795.005V33H752.745V-9.26008H721.05V33ZM879.443 -40.9551V-72.6502H921.703V33H879.443V1.30494H868.878V-9.26008H858.313V-19.8251H847.748V33H805.488V-72.6502H847.748V-62.0852H858.313V-51.5202H868.878V-40.9551H879.443ZM974.445 -51.5202V11.87H1006.14V-9.26008H1048.4V22.435H1037.84V33H942.75V22.435H932.185V-62.0852H942.75V-72.6502H1037.84V-62.0852H1048.4V-30.3901H1006.14V-51.5202H974.445ZM1101.14 -30.3901H1132.84V-9.26008H1101.14V11.87H1175.1V33H1069.45V22.435H1058.88V-62.0852H1069.45V-72.6502H1175.1V-51.5202H1101.14V-30.3901Z" fill="#FEBD23"/>
<path d="M76.9551 -51.5202H80.5858V-55.1508H76.9551V-51.5202ZM45.2601 -51.5202V-55.1508H41.6295V-51.5202H45.2601ZM45.2601 -30.3901H41.6295V-26.7595H45.2601V-30.3901ZM76.9551 -30.3901V-26.7595H80.5858V-30.3901H76.9551ZM45.2601 33V36.6306H48.8907V33H45.2601ZM3 33H-0.630631V36.6306H3V33ZM3 -72.6502V-76.2808H-0.630631V-72.6502H3ZM108.65 -72.6502H112.281V-76.2808H108.65V-72.6502ZM108.65 -62.0852H105.02V-58.4546H108.65V-62.0852ZM119.215 -62.0852H122.846V-65.7158H119.215V-62.0852ZM119.215 -19.8251V-16.1945H122.846V-19.8251H119.215ZM108.65 -19.8251V-23.4557H105.02V-19.8251H108.65ZM108.65 -9.26008V-5.62945H112.281V-9.26008H108.65ZM45.2601 -9.26008V-12.8907H41.6295V-9.26008H45.2601ZM76.9551 -55.1508H45.2601V-47.8895H76.9551V-55.1508ZM41.6295 -51.5202V-30.3901H48.8907V-51.5202H41.6295ZM45.2601 -26.7595H76.9551V-34.0208H45.2601V-26.7595ZM80.5858 -30.3901V-51.5202H73.3245V-30.3901H80.5858ZM45.2601 29.3694H3V36.6306H45.2601V29.3694ZM6.63063 33V-72.6502H-0.630631V33H6.63063ZM3 -69.0196H108.65V-76.2808H3V-69.0196ZM105.02 -72.6502V-62.0852H112.281V-72.6502H105.02ZM108.65 -58.4546H119.215V-65.7158H108.65V-58.4546ZM115.585 -62.0852V-19.8251H122.846V-62.0852H115.585ZM119.215 -23.4557H108.65V-16.1945H119.215V-23.4557ZM105.02 -19.8251V-9.26008H112.281V-19.8251H105.02ZM108.65 -12.8907H45.2601V-5.62945H108.65V-12.8907ZM41.6295 -9.26008V33H48.8907V-9.26008H41.6295ZM203.653 -9.26008H207.283V-12.8907H203.653V-9.26008ZM140.263 -9.26008H136.632V-5.62945H140.263V-9.26008ZM140.263 -19.8251H143.893V-23.4557H140.263V-19.8251ZM129.698 -19.8251H126.067V-16.1945H129.698V-19.8251ZM129.698 -62.0852V-65.7158H126.067V-62.0852H129.698ZM140.263 -62.0852V-58.4546H143.893V-62.0852H140.263ZM140.263 -72.6502V-76.2808H136.632V-72.6502H140.263ZM245.913 -72.6502H249.544V-76.2808H245.913V-72.6502ZM245.913 -51.5202V-47.8895H249.544V-51.5202H245.913ZM171.958 -51.5202V-55.1508H168.327V-51.5202H171.958ZM171.958 -30.3901H168.327V-26.7595H171.958V-30.3901ZM235.348 -30.3901H238.979V-34.0208H235.348V-30.3901ZM235.348 -19.8251H231.717V-16.1945H235.348V-19.8251ZM245.913 -19.8251H249.544V-23.4557H245.913V-19.8251ZM245.913 22.435V26.0656H249.544V22.435H245.913ZM235.348 22.435V18.8044H231.717V22.435H235.348ZM235.348 33V36.6306H238.979V33H235.348ZM129.698 33H126.067V36.6306H129.698V33ZM129.698 11.87V8.23933H126.067V11.87H129.698ZM203.653 11.87V15.5006H207.283V11.87H203.653ZM203.653 -12.8907H140.263V-5.62945H203.653V-12.8907ZM143.893 -9.26008V-19.8251H136.632V-9.26008H143.893ZM140.263 -23.4557H129.698V-16.1945H140.263V-23.4557ZM133.328 -19.8251V-62.0852H126.067V-19.8251H133.328ZM129.698 -58.4546H140.263V-65.7158H129.698V-58.4546ZM143.893 -62.0852V-72.6502H136.632V-62.0852H143.893ZM140.263 -69.0196H245.913V-76.2808H140.263V-69.0196ZM242.282 -72.6502V-51.5202H249.544V-72.6502H242.282ZM245.913 -55.1508H171.958V-47.8895H245.913V-55.1508ZM168.327 -51.5202V-30.3901H175.588V-51.5202H168.327ZM171.958 -26.7595H235.348V-34.0208H171.958V-26.7595ZM231.717 -30.3901V-19.8251H238.979V-30.3901H231.717ZM235.348 -16.1945H245.913V-23.4557H235.348V-16.1945ZM242.282 -19.8251V22.435H249.544V-19.8251H242.282ZM245.913 18.8044H235.348V26.0656H245.913V18.8044ZM231.717 22.435V33H238.979V22.435H231.717ZM235.348 29.3694H129.698V36.6306H235.348V29.3694ZM133.328 33V11.87H126.067V33H133.328ZM129.698 15.5006H203.653V8.23933H129.698V15.5006ZM207.283 11.87V-9.26008H200.022V11.87H207.283ZM383.176 -30.3901H386.806V-34.0208H383.176V-30.3901ZM383.176 -9.26008V-5.62945H386.806V-9.26008H383.176ZM351.481 -9.26008V-12.8907H347.85V-9.26008H351.481ZM351.481 33V36.6306H355.111V33H351.481ZM309.22 33H305.59V36.6306H309.22V33ZM309.22 -62.0852V-65.7158H305.59V-62.0852H309.22ZM319.786 -62.0852V-58.4546H323.416V-62.0852H319.786ZM319.786 -72.6502V-76.2808H316.155V-72.6502H319.786ZM425.436 -72.6502H429.066V-76.2808H425.436V-72.6502ZM425.436 -51.5202V-47.8895H429.066V-51.5202H425.436ZM351.481 -51.5202V-55.1508H347.85V-51.5202H351.481ZM351.481 -30.3901H347.85V-26.7595H351.481V-30.3901ZM379.545 -30.3901V-9.26008H386.806V-30.3901H379.545ZM383.176 -12.8907H351.481V-5.62945H383.176V-12.8907ZM347.85 -9.26008V33H355.111V-9.26008H347.85ZM351.481 29.3694H309.22V36.6306H351.481V29.3694ZM312.851 33V-62.0852H305.59V33H312.851ZM309.22 -58.4546H319.786V-65.7158H309.22V-58.4546ZM323.416 -62.0852V-72.6502H316.155V-62.0852H323.416ZM319.786 -69.0196H425.436V-76.2808H319.786V-69.0196ZM421.805 -72.6502V-51.5202H429.066V-72.6502H421.805ZM425.436 -55.1508H351.481V-47.8895H425.436V-55.1508ZM347.85 -51.5202V-30.3901H355.111V-51.5202H347.85ZM351.481 -26.7595H383.176V-34.0208H351.481V-26.7595ZM435.918 -72.6502V-76.2808H432.288V-72.6502H435.918ZM541.568 -72.6502H545.199V-76.2808H541.568V-72.6502ZM541.568 -51.5202V-47.8895H545.199V-51.5202H541.568ZM509.873 -51.5202V-55.1508H506.243V-51.5202H509.873ZM509.873 11.87H506.243V15.5006H509.873V11.87ZM541.568 11.87H545.199V8.23933H541.568V11.87ZM541.568 33V36.6306H545.199V33H541.568ZM435.918 33H432.288V36.6306H435.918V33ZM435.918 11.87V8.23933H432.288V11.87H435.918ZM467.613 11.87V15.5006H471.244V11.87H467.613ZM467.613 -51.5202H471.244V-55.1508H467.613V-51.5202ZM435.918 -51.5202H432.288V-47.8895H435.918V-51.5202ZM435.918 -69.0196H541.568V-76.2808H435.918V-69.0196ZM537.938 -72.6502V-51.5202H545.199V-72.6502H537.938ZM541.568 -55.1508H509.873V-47.8895H541.568V-55.1508ZM506.243 -51.5202V11.87H513.504V-51.5202H506.243ZM509.873 15.5006H541.568V8.23933H509.873V15.5006ZM537.938 11.87V33H545.199V11.87H537.938ZM541.568 29.3694H435.918V36.6306H541.568V29.3694ZM439.549 33V11.87H432.288V33H439.549ZM435.918 15.5006H467.613V8.23933H435.918V15.5006ZM471.244 11.87V-51.5202H463.983V11.87H471.244ZM467.613 -55.1508H435.918V-47.8895H467.613V-55.1508ZM439.549 -51.5202V-72.6502H432.288V-51.5202H439.549ZM626.047 -40.9551V-37.3245H629.678V-40.9551H626.047ZM626.047 -72.6502V-76.2808H622.417V-72.6502H626.047ZM668.307 -72.6502H671.938V-76.2808H668.307V-72.6502ZM668.307 33V36.6306H671.938V33H668.307ZM626.047 33H622.417V36.6306H626.047V33ZM626.047 1.30494H629.678V-2.32569H626.047V1.30494ZM615.482 1.30494H611.852V4.93557H615.482V1.30494ZM615.482 -9.26008H619.113V-12.8907H615.482V-9.26008ZM604.917 -9.26008H601.287V-5.62945H604.917V-9.26008ZM604.917 -19.8251H608.548V-23.4557H604.917V-19.8251ZM594.352 -19.8251V-23.4557H590.722V-19.8251H594.352ZM594.352 33V36.6306H597.983V33H594.352ZM552.092 33H548.462V36.6306H552.092V33ZM552.092 -72.6502V-76.2808H548.462V-72.6502H552.092ZM594.352 -72.6502H597.983V-76.2808H594.352V-72.6502ZM594.352 -62.0852H590.722V-58.4546H594.352V-62.0852ZM604.917 -62.0852H608.548V-65.7158H604.917V-62.0852ZM604.917 -51.5202H601.287V-47.8895H604.917V-51.5202ZM615.482 -51.5202H619.113V-55.1508H615.482V-51.5202ZM615.482 -40.9551H611.852V-37.3245H615.482V-40.9551ZM629.678 -40.9551V-72.6502H622.417V-40.9551H629.678ZM626.047 -69.0196H668.307V-76.2808H626.047V-69.0196ZM664.677 -72.6502V33H671.938V-72.6502H664.677ZM668.307 29.3694H626.047V36.6306H668.307V29.3694ZM629.678 33V1.30494H622.417V33H629.678ZM626.047 -2.32569H615.482V4.93557H626.047V-2.32569ZM619.113 1.30494V-9.26008H611.852V1.30494H619.113ZM615.482 -12.8907H604.917V-5.62945H615.482V-12.8907ZM608.548 -9.26008V-19.8251H601.287V-9.26008H608.548ZM604.917 -23.4557H594.352V-16.1945H604.917V-23.4557ZM590.722 -19.8251V33H597.983V-19.8251H590.722ZM594.352 29.3694H552.092V36.6306H594.352V29.3694ZM555.723 33V-72.6502H548.462V33H555.723ZM552.092 -69.0196H594.352V-76.2808H552.092V-69.0196ZM590.722 -72.6502V-62.0852H597.983V-72.6502H590.722ZM594.352 -58.4546H604.917V-65.7158H594.352V-58.4546ZM601.287 -62.0852V-51.5202H608.548V-62.0852H601.287ZM604.917 -47.8895H615.482V-55.1508H604.917V-47.8895ZM611.852 -51.5202V-40.9551H619.113V-51.5202H611.852ZM615.482 -37.3245H626.047V-44.5858H615.482V-37.3245ZM752.745 -51.5202H756.376V-55.1508H752.745V-51.5202ZM721.05 -51.5202V-55.1508H717.419V-51.5202H721.05ZM721.05 -30.3901H717.419V-26.7595H721.05V-30.3901ZM752.745 -30.3901V-26.7595H756.376V-30.3901H752.745ZM721.05 33V36.6306H724.681V33H721.05ZM678.79 33H675.159V36.6306H678.79V33ZM678.79 -62.0852V-65.7158H675.159V-62.0852H678.79ZM689.355 -62.0852V-58.4546H692.986V-62.0852H689.355ZM689.355 -72.6502V-76.2808H685.724V-72.6502H689.355ZM784.44 -72.6502H788.071V-76.2808H784.44V-72.6502ZM784.44 -62.0852H780.809V-58.4546H784.44V-62.0852ZM795.005 -62.0852H798.636V-65.7158H795.005V-62.0852ZM795.005 33V36.6306H798.636V33H795.005ZM752.745 33H749.114V36.6306H752.745V33ZM752.745 -9.26008H756.376V-12.8907H752.745V-9.26008ZM721.05 -9.26008V-12.8907H717.419V-9.26008H721.05ZM752.745 -55.1508H721.05V-47.8895H752.745V-55.1508ZM717.419 -51.5202V-30.3901H724.681V-51.5202H717.419ZM721.05 -26.7595H752.745V-34.0208H721.05V-26.7595ZM756.376 -30.3901V-51.5202H749.114V-30.3901H756.376ZM721.05 29.3694H678.79V36.6306H721.05V29.3694ZM682.42 33V-62.0852H675.159V33H682.42ZM678.79 -58.4546H689.355V-65.7158H678.79V-58.4546ZM692.986 -62.0852V-72.6502H685.724V-62.0852H692.986ZM689.355 -69.0196H784.44V-76.2808H689.355V-69.0196ZM780.809 -72.6502V-62.0852H788.071V-72.6502H780.809ZM784.44 -58.4546H795.005V-65.7158H784.44V-58.4546ZM791.374 -62.0852V33H798.636V-62.0852H791.374ZM795.005 29.3694H752.745V36.6306H795.005V29.3694ZM756.376 33V-9.26008H749.114V33H756.376ZM752.745 -12.8907H721.05V-5.62945H752.745V-12.8907ZM717.419 -9.26008V33H724.681V-9.26008H717.419ZM879.443 -40.9551V-37.3245H883.073V-40.9551H879.443ZM879.443 -72.6502V-76.2808H875.812V-72.6502H879.443ZM921.703 -72.6502H925.333V-76.2808H921.703V-72.6502ZM921.703 33V36.6306H925.333V33H921.703ZM879.443 33H875.812V36.6306H879.443V33ZM879.443 1.30494H883.073V-2.32569H879.443V1.30494ZM868.878 1.30494H865.247V4.93557H868.878V1.30494ZM868.878 -9.26008H872.508V-12.8907H868.878V-9.26008ZM858.313 -9.26008H854.682V-5.62945H858.313V-9.26008ZM858.313 -19.8251H861.943V-23.4557H858.313V-19.8251ZM847.748 -19.8251V-23.4557H844.117V-19.8251H847.748ZM847.748 33V36.6306H851.378V33H847.748ZM805.488 33H801.857V36.6306H805.488V33ZM805.488 -72.6502V-76.2808H801.857V-72.6502H805.488ZM847.748 -72.6502H851.378V-76.2808H847.748V-72.6502ZM847.748 -62.0852H844.117V-58.4546H847.748V-62.0852ZM858.313 -62.0852H861.943V-65.7158H858.313V-62.0852ZM858.313 -51.5202H854.682V-47.8895H858.313V-51.5202ZM868.878 -51.5202H872.508V-55.1508H868.878V-51.5202ZM868.878 -40.9551H865.247V-37.3245H868.878V-40.9551ZM883.073 -40.9551V-72.6502H875.812V-40.9551H883.073ZM879.443 -69.0196H921.703V-76.2808H879.443V-69.0196ZM918.072 -72.6502V33H925.333V-72.6502H918.072ZM921.703 29.3694H879.443V36.6306H921.703V29.3694ZM883.073 33V1.30494H875.812V33H883.073ZM879.443 -2.32569H868.878V4.93557H879.443V-2.32569ZM872.508 1.30494V-9.26008H865.247V1.30494H872.508ZM868.878 -12.8907H858.313V-5.62945H868.878V-12.8907ZM861.943 -9.26008V-19.8251H854.682V-9.26008H861.943ZM858.313 -23.4557H847.748V-16.1945H858.313V-23.4557ZM844.117 -19.8251V33H851.378V-19.8251H844.117ZM847.748 29.3694H805.488V36.6306H847.748V29.3694ZM809.118 33V-72.6502H801.857V33H809.118ZM805.488 -69.0196H847.748V-76.2808H805.488V-69.0196ZM844.117 -72.6502V-62.0852H851.378V-72.6502H844.117ZM847.748 -58.4546H858.313V-65.7158H847.748V-58.4546ZM854.682 -62.0852V-51.5202H861.943V-62.0852H854.682ZM858.313 -47.8895H868.878V-55.1508H858.313V-47.8895ZM865.247 -51.5202V-40.9551H872.508V-51.5202H865.247ZM868.878 -37.3245H879.443V-44.5858H868.878V-37.3245ZM974.445 -51.5202V-55.1508H970.815V-51.5202H974.445ZM974.445 11.87H970.815V15.5006H974.445V11.87ZM1006.14 11.87V15.5006H1009.77V11.87H1006.14ZM1006.14 -9.26008V-12.8907H1002.51V-9.26008H1006.14ZM1048.4 -9.26008H1052.03V-12.8907H1048.4V-9.26008ZM1048.4 22.435V26.0656H1052.03V22.435H1048.4ZM1037.84 22.435V18.8044H1034.2V22.435H1037.84ZM1037.84 33V36.6306H1041.47V33H1037.84ZM942.75 33H939.12V36.6306H942.75V33ZM942.75 22.435H946.381V18.8044H942.75V22.435ZM932.185 22.435H928.555V26.0656H932.185V22.435ZM932.185 -62.0852V-65.7158H928.555V-62.0852H932.185ZM942.75 -62.0852V-58.4546H946.381V-62.0852H942.75ZM942.75 -72.6502V-76.2808H939.12V-72.6502H942.75ZM1037.84 -72.6502H1041.47V-76.2808H1037.84V-72.6502ZM1037.84 -62.0852H1034.2V-58.4546H1037.84V-62.0852ZM1048.4 -62.0852H1052.03V-65.7158H1048.4V-62.0852ZM1048.4 -30.3901V-26.7595H1052.03V-30.3901H1048.4ZM1006.14 -30.3901H1002.51V-26.7595H1006.14V-30.3901ZM1006.14 -51.5202H1009.77V-55.1508H1006.14V-51.5202ZM970.815 -51.5202V11.87H978.076V-51.5202H970.815ZM974.445 15.5006H1006.14V8.23933H974.445V15.5006ZM1009.77 11.87V-9.26008H1002.51V11.87H1009.77ZM1006.14 -5.62945H1048.4V-12.8907H1006.14V-5.62945ZM1044.77 -9.26008V22.435H1052.03V-9.26008H1044.77ZM1048.4 18.8044H1037.84V26.0656H1048.4V18.8044ZM1034.2 22.435V33H1041.47V22.435H1034.2ZM1037.84 29.3694H942.75V36.6306H1037.84V29.3694ZM946.381 33V22.435H939.12V33H946.381ZM942.75 18.8044H932.185V26.0656H942.75V18.8044ZM935.816 22.435V-62.0852H928.555V22.435H935.816ZM932.185 -58.4546H942.75V-65.7158H932.185V-58.4546ZM946.381 -62.0852V-72.6502H939.12V-62.0852H946.381ZM942.75 -69.0196H1037.84V-76.2808H942.75V-69.0196ZM1034.2 -72.6502V-62.0852H1041.47V-72.6502H1034.2ZM1037.84 -58.4546H1048.4V-65.7158H1037.84V-58.4546ZM1044.77 -62.0852V-30.3901H1052.03V-62.0852H1044.77ZM1048.4 -34.0208H1006.14V-26.7595H1048.4V-34.0208ZM1009.77 -30.3901V-51.5202H1002.51V-30.3901H1009.77ZM1006.14 -55.1508H974.445V-47.8895H1006.14V-55.1508ZM1101.14 -30.3901H1097.51V-26.7595H1101.14V-30.3901ZM1132.84 -30.3901H1136.47V-34.0208H1132.84V-30.3901ZM1132.84 -9.26008V-5.62945H1136.47V-9.26008H1132.84ZM1101.14 -9.26008V-12.8907H1097.51V-9.26008H1101.14ZM1101.14 11.87H1097.51V15.5006H1101.14V11.87ZM1175.1 11.87H1178.73V8.23933H1175.1V11.87ZM1175.1 33V36.6306H1178.73V33H1175.1ZM1069.45 33H1065.82V36.6306H1069.45V33ZM1069.45 22.435H1073.08V18.8044H1069.45V22.435ZM1058.88 22.435H1055.25V26.0656H1058.88V22.435ZM1058.88 -62.0852V-65.7158H1055.25V-62.0852H1058.88ZM1069.45 -62.0852V-58.4546H1073.08V-62.0852H1069.45ZM1069.45 -72.6502V-76.2808H1065.82V-72.6502H1069.45ZM1175.1 -72.6502H1178.73V-76.2808H1175.1V-72.6502ZM1175.1 -51.5202V-47.8895H1178.73V-51.5202H1175.1ZM1101.14 -51.5202V-55.1508H1097.51V-51.5202H1101.14ZM1101.14 -26.7595H1132.84V-34.0208H1101.14V-26.7595ZM1129.21 -30.3901V-9.26008H1136.47V-30.3901H1129.21ZM1132.84 -12.8907H1101.14V-5.62945H1132.84V-12.8907ZM1097.51 -9.26008V11.87H1104.77V-9.26008H1097.51ZM1101.14 15.5006H1175.1V8.23933H1101.14V15.5006ZM1171.47 11.87V33H1178.73V11.87H1171.47ZM1175.1 29.3694H1069.45V36.6306H1175.1V29.3694ZM1073.08 33V22.435H1065.82V33H1073.08ZM1069.45 18.8044H1058.88V26.0656H1069.45V18.8044ZM1062.51 22.435V-62.0852H1055.25V22.435H1062.51ZM1058.88 -58.4546H1069.45V-65.7158H1058.88V-58.4546ZM1073.08 -62.0852V-72.6502H1065.82V-62.0852H1073.08ZM1069.45 -69.0196H1175.1V-76.2808H1069.45V-69.0196ZM1171.47 -72.6502V-51.5202H1178.73V-72.6502H1171.47ZM1175.1 -55.1508H1101.14V-47.8895H1175.1V-55.1508ZM1097.51 -51.5202V-30.3901H1104.77V-51.5202H1097.51Z" fill="#1F0D35"/>
<path d="M76.9551 224.48H45.2601V245.61H76.9551V224.48ZM45.2601 309H3V203.35H108.65V213.915H119.215V256.175H108.65V266.74H45.2601V309ZM203.653 266.74H140.263V256.175H129.698V213.915H140.263V203.35H245.913V224.48H171.958V245.61H235.348V256.175H245.913V298.435H235.348V309H129.698V287.87H203.653V266.74ZM383.176 245.61V266.74H351.481V309H309.22V213.915H319.786V203.35H425.436V224.48H351.481V245.61H383.176ZM435.918 203.35H541.568V224.48H509.873V287.87H541.568V309H435.918V287.87H467.613V224.48H435.918V203.35ZM626.047 235.045V203.35H668.307V309H626.047V277.305H615.482V266.74H604.917V256.175H594.352V309H552.092V203.35H594.352V213.915H604.917V224.48H615.482V235.045H626.047ZM752.745 224.48H721.05V245.61H752.745V224.48ZM721.05 309H678.79V213.915H689.355V203.35H784.44V213.915H795.005V309H752.745V266.74H721.05V309ZM879.443 235.045V203.35H921.703V309H879.443V277.305H868.878V266.74H858.313V256.175H847.748V309H805.488V203.35H847.748V213.915H858.313V224.48H868.878V235.045H879.443ZM974.445 224.48V287.87H1006.14V266.74H1048.4V298.435H1037.84V309H942.75V298.435H932.185V213.915H942.75V203.35H1037.84V213.915H1048.4V245.61H1006.14V224.48H974.445ZM1101.14 245.61H1132.84V266.74H1101.14V287.87H1175.1V309H1069.45V298.435H1058.88V213.915H1069.45V203.35H1175.1V224.48H1101.14V245.61Z" fill="#FEBD23"/>
<path d="M76.9551 224.48H80.5858V220.849H76.9551V224.48ZM45.2601 224.48V220.849H41.6295V224.48H45.2601ZM45.2601 245.61H41.6295V249.241H45.2601V245.61ZM76.9551 245.61V249.241H80.5858V245.61H76.9551ZM45.2601 309V312.631H48.8907V309H45.2601ZM3 309H-0.630631V312.631H3V309ZM3 203.35V199.719H-0.630631V203.35H3ZM108.65 203.35H112.281V199.719H108.65V203.35ZM108.65 213.915H105.02V217.545H108.65V213.915ZM119.215 213.915H122.846V210.284H119.215V213.915ZM119.215 256.175V259.806H122.846V256.175H119.215ZM108.65 256.175V252.544H105.02V256.175H108.65ZM108.65 266.74V270.371H112.281V266.74H108.65ZM45.2601 266.74V263.109H41.6295V266.74H45.2601ZM76.9551 220.849H45.2601V228.11H76.9551V220.849ZM41.6295 224.48V245.61H48.8907V224.48H41.6295ZM45.2601 249.241H76.9551V241.979H45.2601V249.241ZM80.5858 245.61V224.48H73.3245V245.61H80.5858ZM45.2601 305.369H3V312.631H45.2601V305.369ZM6.63063 309V203.35H-0.630631V309H6.63063ZM3 206.98H108.65V199.719H3V206.98ZM105.02 203.35V213.915H112.281V203.35H105.02ZM108.65 217.545H119.215V210.284H108.65V217.545ZM115.585 213.915V256.175H122.846V213.915H115.585ZM119.215 252.544H108.65V259.806H119.215V252.544ZM105.02 256.175V266.74H112.281V256.175H105.02ZM108.65 263.109H45.2601V270.371H108.65V263.109ZM41.6295 266.74V309H48.8907V266.74H41.6295ZM203.653 266.74H207.283V263.109H203.653V266.74ZM140.263 266.74H136.632V270.371H140.263V266.74ZM140.263 256.175H143.893V252.544H140.263V256.175ZM129.698 256.175H126.067V259.806H129.698V256.175ZM129.698 213.915V210.284H126.067V213.915H129.698ZM140.263 213.915V217.545H143.893V213.915H140.263ZM140.263 203.35V199.719H136.632V203.35H140.263ZM245.913 203.35H249.544V199.719H245.913V203.35ZM245.913 224.48V228.11H249.544V224.48H245.913ZM171.958 224.48V220.849H168.327V224.48H171.958ZM171.958 245.61H168.327V249.241H171.958V245.61ZM235.348 245.61H238.979V241.979H235.348V245.61ZM235.348 256.175H231.717V259.806H235.348V256.175ZM245.913 256.175H249.544V252.544H245.913V256.175ZM245.913 298.435V302.066H249.544V298.435H245.913ZM235.348 298.435V294.804H231.717V298.435H235.348ZM235.348 309V312.631H238.979V309H235.348ZM129.698 309H126.067V312.631H129.698V309ZM129.698 287.87V284.239H126.067V287.87H129.698ZM203.653 287.87V291.501H207.283V287.87H203.653ZM203.653 263.109H140.263V270.371H203.653V263.109ZM143.893 266.74V256.175H136.632V266.74H143.893ZM140.263 252.544H129.698V259.806H140.263V252.544ZM133.328 256.175V213.915H126.067V256.175H133.328ZM129.698 217.545H140.263V210.284H129.698V217.545ZM143.893 213.915V203.35H136.632V213.915H143.893ZM140.263 206.98H245.913V199.719H140.263V206.98ZM242.282 203.35V224.48H249.544V203.35H242.282ZM245.913 220.849H171.958V228.11H245.913V220.849ZM168.327 224.48V245.61H175.588V224.48H168.327ZM171.958 249.241H235.348V241.979H171.958V249.241ZM231.717 245.61V256.175H238.979V245.61H231.717ZM235.348 259.806H245.913V252.544H235.348V259.806ZM242.282 256.175V298.435H249.544V256.175H242.282ZM245.913 294.804H235.348V302.066H245.913V294.804ZM231.717 298.435V309H238.979V298.435H231.717ZM235.348 305.369H129.698V312.631H235.348V305.369ZM133.328 309V287.87H126.067V309H133.328ZM129.698 291.501H203.653V284.239H129.698V291.501ZM207.283 287.87V266.74H200.022V287.87H207.283ZM383.176 245.61H386.806V241.979H383.176V245.61ZM383.176 266.74V270.371H386.806V266.74H383.176ZM351.481 266.74V263.109H347.85V266.74H351.481ZM351.481 309V312.631H355.111V309H351.481ZM309.22 309H305.59V312.631H309.22V309ZM309.22 213.915V210.284H305.59V213.915H309.22ZM319.786 213.915V217.545H323.416V213.915H319.786ZM319.786 203.35V199.719H316.155V203.35H319.786ZM425.436 203.35H429.066V199.719H425.436V203.35ZM425.436 224.48V228.11H429.066V224.48H425.436ZM351.481 224.48V220.849H347.85V224.48H351.481ZM351.481 245.61H347.85V249.241H351.481V245.61ZM379.545 245.61V266.74H386.806V245.61H379.545ZM383.176 263.109H351.481V270.371H383.176V263.109ZM347.85 266.74V309H355.111V266.74H347.85ZM351.481 305.369H309.22V312.631H351.481V305.369ZM312.851 309V213.915H305.59V309H312.851ZM309.22 217.545H319.786V210.284H309.22V217.545ZM323.416 213.915V203.35H316.155V213.915H323.416ZM319.786 206.98H425.436V199.719H319.786V206.98ZM421.805 203.35V224.48H429.066V203.35H421.805ZM425.436 220.849H351.481V228.11H425.436V220.849ZM347.85 224.48V245.61H355.111V224.48H347.85ZM351.481 249.241H383.176V241.979H351.481V249.241ZM435.918 203.35V199.719H432.288V203.35H435.918ZM541.568 203.35H545.199V199.719H541.568V203.35ZM541.568 224.48V228.11H545.199V224.48H541.568ZM509.873 224.48V220.849H506.243V224.48H509.873ZM509.873 287.87H506.243V291.501H509.873V287.87ZM541.568 287.87H545.199V284.239H541.568V287.87ZM541.568 309V312.631H545.199V309H541.568ZM435.918 309H432.288V312.631H435.918V309ZM435.918 287.87V284.239H432.288V287.87H435.918ZM467.613 287.87V291.501H471.244V287.87H467.613ZM467.613 224.48H471.244V220.849H467.613V224.48ZM435.918 224.48H432.288V228.11H435.918V224.48ZM435.918 206.98H541.568V199.719H435.918V206.98ZM537.938 203.35V224.48H545.199V203.35H537.938ZM541.568 220.849H509.873V228.11H541.568V220.849ZM506.243 224.48V287.87H513.504V224.48H506.243ZM509.873 291.501H541.568V284.239H509.873V291.501ZM537.938 287.87V309H545.199V287.87H537.938ZM541.568 305.369H435.918V312.631H541.568V305.369ZM439.549 309V287.87H432.288V309H439.549ZM435.918 291.501H467.613V284.239H435.918V291.501ZM471.244 287.87V224.48H463.983V287.87H471.244ZM467.613 220.849H435.918V228.11H467.613V220.849ZM439.549 224.48V203.35H432.288V224.48H439.549ZM626.047 235.045V238.675H629.678V235.045H626.047ZM626.047 203.35V199.719H622.417V203.35H626.047ZM668.307 203.35H671.938V199.719H668.307V203.35ZM668.307 309V312.631H671.938V309H668.307ZM626.047 309H622.417V312.631H626.047V309ZM626.047 277.305H629.678V273.674H626.047V277.305ZM615.482 277.305H611.852V280.936H615.482V277.305ZM615.482 266.74H619.113V263.109H615.482V266.74ZM604.917 266.74H601.287V270.371H604.917V266.74ZM604.917 256.175H608.548V252.544H604.917V256.175ZM594.352 256.175V252.544H590.722V256.175H594.352ZM594.352 309V312.631H597.983V309H594.352ZM552.092 309H548.462V312.631H552.092V309ZM552.092 203.35V199.719H548.462V203.35H552.092ZM594.352 203.35H597.983V199.719H594.352V203.35ZM594.352 213.915H590.722V217.545H594.352V213.915ZM604.917 213.915H608.548V210.284H604.917V213.915ZM604.917 224.48H601.287V228.11H604.917V224.48ZM615.482 224.48H619.113V220.849H615.482V224.48ZM615.482 235.045H611.852V238.675H615.482V235.045ZM629.678 235.045V203.35H622.417V235.045H629.678ZM626.047 206.98H668.307V199.719H626.047V206.98ZM664.677 203.35V309H671.938V203.35H664.677ZM668.307 305.369H626.047V312.631H668.307V305.369ZM629.678 309V277.305H622.417V309H629.678ZM626.047 273.674H615.482V280.936H626.047V273.674ZM619.113 277.305V266.74H611.852V277.305H619.113ZM615.482 263.109H604.917V270.371H615.482V263.109ZM608.548 266.74V256.175H601.287V266.74H608.548ZM604.917 252.544H594.352V259.806H604.917V252.544ZM590.722 256.175V309H597.983V256.175H590.722ZM594.352 305.369H552.092V312.631H594.352V305.369ZM555.723 309V203.35H548.462V309H555.723ZM552.092 206.98H594.352V199.719H552.092V206.98ZM590.722 203.35V213.915H597.983V203.35H590.722ZM594.352 217.545H604.917V210.284H594.352V217.545ZM601.287 213.915V224.48H608.548V213.915H601.287ZM604.917 228.11H615.482V220.849H604.917V228.11ZM611.852 224.48V235.045H619.113V224.48H611.852ZM615.482 238.675H626.047V231.414H615.482V238.675ZM752.745 224.48H756.376V220.849H752.745V224.48ZM721.05 224.48V220.849H717.419V224.48H721.05ZM721.05 245.61H717.419V249.241H721.05V245.61ZM752.745 245.61V249.241H756.376V245.61H752.745ZM721.05 309V312.631H724.681V309H721.05ZM678.79 309H675.159V312.631H678.79V309ZM678.79 213.915V210.284H675.159V213.915H678.79ZM689.355 213.915V217.545H692.986V213.915H689.355ZM689.355 203.35V199.719H685.724V203.35H689.355ZM784.44 203.35H788.071V199.719H784.44V203.35ZM784.44 213.915H780.809V217.545H784.44V213.915ZM795.005 213.915H798.636V210.284H795.005V213.915ZM795.005 309V312.631H798.636V309H795.005ZM752.745 309H749.114V312.631H752.745V309ZM752.745 266.74H756.376V263.109H752.745V266.74ZM721.05 266.74V263.109H717.419V266.74H721.05ZM752.745 220.849H721.05V228.11H752.745V220.849ZM717.419 224.48V245.61H724.681V224.48H717.419ZM721.05 249.241H752.745V241.979H721.05V249.241ZM756.376 245.61V224.48H749.114V245.61H756.376ZM721.05 305.369H678.79V312.631H721.05V305.369ZM682.42 309V213.915H675.159V309H682.42ZM678.79 217.545H689.355V210.284H678.79V217.545ZM692.986 213.915V203.35H685.724V213.915H692.986ZM689.355 206.98H784.44V199.719H689.355V206.98ZM780.809 203.35V213.915H788.071V203.35H780.809ZM784.44 217.545H795.005V210.284H784.44V217.545ZM791.374 213.915V309H798.636V213.915H791.374ZM795.005 305.369H752.745V312.631H795.005V305.369ZM756.376 309V266.74H749.114V309H756.376ZM752.745 263.109H721.05V270.371H752.745V263.109ZM717.419 266.74V309H724.681V266.74H717.419ZM879.443 235.045V238.675H883.073V235.045H879.443ZM879.443 203.35V199.719H875.812V203.35H879.443ZM921.703 203.35H925.333V199.719H921.703V203.35ZM921.703 309V312.631H925.333V309H921.703ZM879.443 309H875.812V312.631H879.443V309ZM879.443 277.305H883.073V273.674H879.443V277.305ZM868.878 277.305H865.247V280.936H868.878V277.305ZM868.878 266.74H872.508V263.109H868.878V266.74ZM858.313 266.74H854.682V270.371H858.313V266.74ZM858.313 256.175H861.943V252.544H858.313V256.175ZM847.748 256.175V252.544H844.117V256.175H847.748ZM847.748 309V312.631H851.378V309H847.748ZM805.488 309H801.857V312.631H805.488V309ZM805.488 203.35V199.719H801.857V203.35H805.488ZM847.748 203.35H851.378V199.719H847.748V203.35ZM847.748 213.915H844.117V217.545H847.748V213.915ZM858.313 213.915H861.943V210.284H858.313V213.915ZM858.313 224.48H854.682V228.11H858.313V224.48ZM868.878 224.48H872.508V220.849H868.878V224.48ZM868.878 235.045H865.247V238.675H868.878V235.045ZM883.073 235.045V203.35H875.812V235.045H883.073ZM879.443 206.98H921.703V199.719H879.443V206.98ZM918.072 203.35V309H925.333V203.35H918.072ZM921.703 305.369H879.443V312.631H921.703V305.369ZM883.073 309V277.305H875.812V309H883.073ZM879.443 273.674H868.878V280.936H879.443V273.674ZM872.508 277.305V266.74H865.247V277.305H872.508ZM868.878 263.109H858.313V270.371H868.878V263.109ZM861.943 266.74V256.175H854.682V266.74H861.943ZM858.313 252.544H847.748V259.806H858.313V252.544ZM844.117 256.175V309H851.378V256.175H844.117ZM847.748 305.369H805.488V312.631H847.748V305.369ZM809.118 309V203.35H801.857V309H809.118ZM805.488 206.98H847.748V199.719H805.488V206.98ZM844.117 203.35V213.915H851.378V203.35H844.117ZM847.748 217.545H858.313V210.284H847.748V217.545ZM854.682 213.915V224.48H861.943V213.915H854.682ZM858.313 228.11H868.878V220.849H858.313V228.11ZM865.247 224.48V235.045H872.508V224.48H865.247ZM868.878 238.675H879.443V231.414H868.878V238.675ZM974.445 224.48V220.849H970.815V224.48H974.445ZM974.445 287.87H970.815V291.501H974.445V287.87ZM1006.14 287.87V291.501H1009.77V287.87H1006.14ZM1006.14 266.74V263.109H1002.51V266.74H1006.14ZM1048.4 266.74H1052.03V263.109H1048.4V266.74ZM1048.4 298.435V302.066H1052.03V298.435H1048.4ZM1037.84 298.435V294.804H1034.2V298.435H1037.84ZM1037.84 309V312.631H1041.47V309H1037.84ZM942.75 309H939.12V312.631H942.75V309ZM942.75 298.435H946.381V294.804H942.75V298.435ZM932.185 298.435H928.555V302.066H932.185V298.435ZM932.185 213.915V210.284H928.555V213.915H932.185ZM942.75 213.915V217.545H946.381V213.915H942.75ZM942.75 203.35V199.719H939.12V203.35H942.75ZM1037.84 203.35H1041.47V199.719H1037.84V203.35ZM1037.84 213.915H1034.2V217.545H1037.84V213.915ZM1048.4 213.915H1052.03V210.284H1048.4V213.915ZM1048.4 245.61V249.241H1052.03V245.61H1048.4ZM1006.14 245.61H1002.51V249.241H1006.14V245.61ZM1006.14 224.48H1009.77V220.849H1006.14V224.48ZM970.815 224.48V287.87H978.076V224.48H970.815ZM974.445 291.501H1006.14V284.239H974.445V291.501ZM1009.77 287.87V266.74H1002.51V287.87H1009.77ZM1006.14 270.371H1048.4V263.109H1006.14V270.371ZM1044.77 266.74V298.435H1052.03V266.74H1044.77ZM1048.4 294.804H1037.84V302.066H1048.4V294.804ZM1034.2 298.435V309H1041.47V298.435H1034.2ZM1037.84 305.369H942.75V312.631H1037.84V305.369ZM946.381 309V298.435H939.12V309H946.381ZM942.75 294.804H932.185V302.066H942.75V294.804ZM935.816 298.435V213.915H928.555V298.435H935.816ZM932.185 217.545H942.75V210.284H932.185V217.545ZM946.381 213.915V203.35H939.12V213.915H946.381ZM942.75 206.98H1037.84V199.719H942.75V206.98ZM1034.2 203.35V213.915H1041.47V203.35H1034.2ZM1037.84 217.545H1048.4V210.284H1037.84V217.545ZM1044.77 213.915V245.61H1052.03V213.915H1044.77ZM1048.4 241.979H1006.14V249.241H1048.4V241.979ZM1009.77 245.61V224.48H1002.51V245.61H1009.77ZM1006.14 220.849H974.445V228.11H1006.14V220.849ZM1101.14 245.61H1097.51V249.241H1101.14V245.61ZM1132.84 245.61H1136.47V241.979H1132.84V245.61ZM1132.84 266.74V270.371H1136.47V266.74H1132.84ZM1101.14 266.74V263.109H1097.51V266.74H1101.14ZM1101.14 287.87H1097.51V291.501H1101.14V287.87ZM1175.1 287.87H1178.73V284.239H1175.1V287.87ZM1175.1 309V312.631H1178.73V309H1175.1ZM1069.45 309H1065.82V312.631H1069.45V309ZM1069.45 298.435H1073.08V294.804H1069.45V298.435ZM1058.88 298.435H1055.25V302.066H1058.88V298.435ZM1058.88 213.915V210.284H1055.25V213.915H1058.88ZM1069.45 213.915V217.545H1073.08V213.915H1069.45ZM1069.45 203.35V199.719H1065.82V203.35H1069.45ZM1175.1 203.35H1178.73V199.719H1175.1V203.35ZM1175.1 224.48V228.11H1178.73V224.48H1175.1ZM1101.14 224.48V220.849H1097.51V224.48H1101.14ZM1101.14 249.241H1132.84V241.979H1101.14V249.241ZM1129.21 245.61V266.74H1136.47V245.61H1129.21ZM1132.84 263.109H1101.14V270.371H1132.84V263.109ZM1097.51 266.74V287.87H1104.77V266.74H1097.51ZM1101.14 291.501H1175.1V284.239H1101.14V291.501ZM1171.47 287.87V309H1178.73V287.87H1171.47ZM1175.1 305.369H1069.45V312.631H1175.1V305.369ZM1073.08 309V298.435H1065.82V309H1073.08ZM1069.45 294.804H1058.88V302.066H1069.45V294.804ZM1062.51 298.435V213.915H1055.25V298.435H1062.51ZM1058.88 217.545H1069.45V210.284H1058.88V217.545ZM1073.08 213.915V203.35H1065.82V213.915H1073.08ZM1069.45 206.98H1175.1V199.719H1069.45V206.98ZM1171.47 203.35V224.48H1178.73V203.35H1171.47ZM1175.1 220.849H1101.14V228.11H1175.1V220.849ZM1097.51 224.48V245.61H1104.77V224.48H1097.51Z" fill="#1F0D35"/>
</g>
</svg>
