<svg width="968" height="1022" viewBox="0 0 968 1022" fill="none" xmlns="http://www.w3.org/2000/svg">
<path d="M428.5 65.5H60V379H933V695H60V1018.5H498.5" stroke="#FEBD23" stroke-width="6" stroke-dasharray="10 10"/>
<circle cx="496" cy="60" r="60" fill="#FEBD23"/>
<circle cx="908" cy="389" r="60" fill="#FEBD23"/>
<circle cx="60" cy="696" r="60" fill="#FEBD23"/>
<path d="M488 81V38.8628H504.855V81H488Z" fill="#492E8B"/>
<path d="M927.137 393.145H901.855V401.573H931.351V410H885V388.931H889.214V384.718H914.496V376.29H885V367.863H927.137V372.076H931.351V388.931H927.137V393.145Z" fill="#492E8B"/>
<path d="M53.8549 691.718H66.4961V683.29H37V674.863H79.1372V679.076H83.351V691.718H79.1372V700.145H83.351V712.786H79.1372V717H37V708.573H66.4961V700.145H53.8549V691.718Z" fill="#492E8B"/>
</svg>
