<svg width="48" height="43" viewBox="0 0 48 43" fill="none" xmlns="http://www.w3.org/2000/svg">
<path d="M44.508 0.00433307C43.9262 0.0466653 43.3551 0.18317 42.817 0.40852H42.8097C42.2932 0.613333 39.8372 1.64646 36.1035 3.21246L22.7236 8.84752C13.1228 12.8894 3.6851 16.8696 3.6851 16.8696L3.79748 16.8261C3.79748 16.8261 3.14679 17.04 2.4671 17.5058C2.0472 17.773 1.68587 18.1226 1.40498 18.5335C1.07148 19.0229 0.803229 19.7715 0.902916 20.5454C1.06604 21.854 1.91429 22.6388 2.52329 23.072C3.13954 23.5106 3.72679 23.7155 3.72679 23.7155H3.74129L12.5917 26.697C12.9887 27.9712 15.2887 35.533 15.8415 37.2748C16.1678 38.3151 16.485 38.9658 16.8819 39.4625C17.074 39.7162 17.2988 39.9283 17.5689 40.0986C17.7092 40.1803 17.8589 40.2448 18.0147 40.2908L17.9241 40.269C17.9513 40.2763 17.973 40.298 17.993 40.3053C18.0655 40.3252 18.1144 40.3325 18.2069 40.347C19.6079 40.7711 20.7335 39.9011 20.7335 39.9011L20.7969 39.8503L26.0224 35.0925L34.7803 41.8115L34.9797 41.8966C36.8049 42.6978 38.6537 42.2519 39.6306 41.4653C40.6148 40.6732 40.9972 39.66 40.9972 39.66L41.0607 39.4969L47.8285 4.82558C48.0207 3.97008 48.0696 3.16896 47.8575 2.3914C47.6388 1.60445 47.1339 0.927634 46.442 0.493708C45.8609 0.140479 45.1872 -0.0300165 44.508 0.00433307ZM44.325 3.71996C44.3177 3.83415 44.3395 3.82146 44.2887 4.04077V4.06071L37.5843 38.3713C37.5553 38.4203 37.5064 38.5272 37.3722 38.6341C37.2309 38.7465 37.1185 38.8172 36.5294 38.5834L25.8175 30.371L19.3469 36.2688L20.7063 27.587L38.2078 11.2745C38.9292 10.6038 38.6881 10.4625 38.6881 10.4625C38.7388 9.63958 37.5988 10.2214 37.5988 10.2214L15.5298 23.8931L15.5225 23.8568L4.94479 20.2953V20.288L4.9176 20.2826C4.93615 20.2764 4.9543 20.2692 4.97198 20.2608L5.02998 20.2318L5.08617 20.2119C5.08617 20.2119 14.5311 16.2316 24.1319 12.1898C28.9387 10.1652 33.7817 8.12615 37.5064 6.5529C39.7153 5.62309 41.9266 4.69871 44.1401 3.77977C44.2887 3.72177 44.218 3.72177 44.325 3.72177V3.71996Z" fill="#F37A2D"/>
</svg>
