<svg width="48" height="40" viewBox="0 0 48 40" fill="none" xmlns="http://www.w3.org/2000/svg">
<path d="M41.4686 11.2915V12.479C41.4686 24.4371 32.3961 38.1409 15.7948 38.1409C10.894 38.1514 6.09716 36.7273 1.99609 34.044C2.70833 34.1407 3.42676 34.1844 4.14547 34.1746C8.20791 34.1858 12.1561 32.8307 15.3555 30.3271C13.4681 30.2993 11.6376 29.6773 10.124 28.5496C8.61041 27.4218 7.49077 25.8457 6.92422 24.0452C7.48639 24.1644 8.05955 24.2241 8.63422 24.2234C9.43669 24.2235 10.2355 24.1157 11.0092 23.9027C8.96503 23.4952 7.12599 22.39 5.80678 20.7762C4.48756 19.1624 3.77016 17.1403 3.77734 15.0559V14.9371C5.02802 15.6357 6.43018 16.0189 7.86234 16.0534C5.95593 14.7988 4.60049 12.8637 4.07299 10.6434C3.54549 8.42299 3.88574 6.08501 5.02422 4.10711C7.29265 6.89713 10.1229 9.17852 13.3308 10.803C16.5388 12.4274 20.0528 13.3586 23.6442 13.5359C23.4664 12.8619 23.3825 12.1665 23.3948 11.4696C23.328 9.62768 23.8304 7.80991 24.8337 6.26379C25.8371 4.71768 27.2925 3.51836 29.002 2.82914C30.7114 2.13992 32.5917 1.99429 34.3869 2.41209C36.182 2.82988 37.8048 3.79079 39.0342 5.16398C41.0551 4.75615 42.9936 4.01365 44.7698 2.96711C44.0962 5.09435 42.6633 6.89928 40.7442 8.03773C42.5369 7.79072 44.2846 7.28679 45.9336 6.54148C44.7385 8.37693 43.2267 9.98529 41.4686 11.2915Z" stroke="#F37A2D" stroke-width="3.5" stroke-linecap="round" stroke-linejoin="round"/>
</svg>
